<svg xmlns="http://www.w3.org/2000/svg" width="1200" height="675" viewBox="0 0 1200 675">
  <defs>
    <linearGradient id="bg" x1="0" y1="0" x2="0" y2="1">
      <stop offset="0%" stop-color="#0f172a"/>
      <stop offset="100%" stop-color="#111827"/>
    </linearGradient>
    <linearGradient id="cardBlue" x1="0" y1="0" x2="1" y2="1">
      <stop offset="0%" stop-color="#1e3a5f"/>
      <stop offset="100%" stop-color="#1e293b"/>
    </linearGradient>
    <linearGradient id="cardGreen" x1="0" y1="0" x2="1" y2="1">
      <stop offset="0%" stop-color="#14532d"/>
      <stop offset="100%" stop-color="#1e293b"/>
    </linearGradient>
    <linearGradient id="cardRed" x1="0" y1="0" x2="1" y2="1">
      <stop offset="0%" stop-color="#7f1d1d"/>
      <stop offset="100%" stop-color="#1e293b"/>
    </linearGradient>
    <filter id="shadow">
      <feDropShadow dx="0" dy="2" stdDeviation="4" flood-color="#00000044"/>
    </filter>
  </defs>

  <!-- Background -->
  <rect width="1200" height="675" fill="url(#bg)"/>

  <!-- Sidebar -->
  <rect x="0" y="0" width="220" height="675" fill="#0c1524"/>
  <rect x="219" y="0" width="1" height="675" fill="#1e293b"/>

  <!-- Logo -->
  <rect x="18" y="20" width="10" height="10" rx="2" fill="#3b82f6"/>
  <rect x="32" y="20" width="10" height="10" rx="2" fill="#22c55e"/>
  <text x="48" y="31" font-family="system-ui,sans-serif" font-size="15" font-weight="700" fill="#f1f5f9">WhatIsUp</text>

  <!-- Nav separator -->
  <rect x="12" y="52" width="196" height="1" fill="#1e293b"/>

  <!-- Nav items -->
  <rect x="8" y="62" width="204" height="36" rx="8" fill="#3b82f6" opacity="0.15"/>
  <rect x="8" y="62" width="3" height="36" rx="1" fill="#3b82f6"/>
  <circle cx="26" cy="80" r="4" fill="#3b82f6"/>
  <text x="40" y="85" font-family="system-ui,sans-serif" font-size="13" font-weight="600" fill="#3b82f6">Dashboard</text>

  <circle cx="26" cy="120" r="4" fill="#475569"/>
  <text x="40" y="125" font-family="system-ui,sans-serif" font-size="13" fill="#64748b">Monitors</text>

  <circle cx="26" cy="154" r="4" fill="#475569"/>
  <text x="40" y="159" font-family="system-ui,sans-serif" font-size="13" fill="#64748b">Probes</text>

  <circle cx="26" cy="188" r="4" fill="#475569"/>
  <text x="40" y="193" font-family="system-ui,sans-serif" font-size="13" fill="#64748b">Alerts</text>

  <circle cx="26" cy="222" r="4" fill="#475569"/>
  <text x="40" y="227" font-family="system-ui,sans-serif" font-size="13" fill="#64748b">Maintenance</text>

  <circle cx="26" cy="256" r="4" fill="#475569"/>
  <text x="40" y="261" font-family="system-ui,sans-serif" font-size="13" fill="#64748b">Audit</text>

  <!-- Sidebar bottom -->
  <rect x="12" y="630" width="196" height="1" fill="#1e293b"/>
  <circle cx="28" cy="653" r="13" fill="#1e40af"/>
  <text x="28" y="657" font-family="system-ui,sans-serif" font-size="11" font-weight="700" fill="#fff" text-anchor="middle">A</text>
  <text x="48" y="649" font-family="system-ui,sans-serif" font-size="12" fill="#94a3b8">admin@local</text>
  <text x="48" y="663" font-family="system-ui,sans-serif" font-size="10" fill="#475569">Superadmin</text>

  <!-- Main content -->
  <rect x="220" y="0" width="980" height="675" fill="#0f172a"/>

  <!-- Top bar -->
  <rect x="220" y="0" width="980" height="56" fill="#0c1524"/>
  <rect x="220" y="55" width="980" height="1" fill="#1e293b"/>
  <text x="244" y="33" font-family="system-ui,sans-serif" font-size="20" font-weight="700" fill="#f1f5f9">Dashboard</text>
  <text x="244" y="50" font-family="system-ui,sans-serif" font-size="12" fill="#475569">Real-time monitoring overview</text>

  <!-- WS indicator -->
  <circle cx="1142" cy="23" r="5" fill="#22c55e"/>
  <circle cx="1142" cy="23" r="9" fill="#22c55e" opacity="0.2"/>
  <text x="1155" y="27" font-family="system-ui,sans-serif" font-size="11" fill="#22c55e">Live</text>

  <!-- Refresh button -->
  <rect x="1060" y="14" width="70" height="28" rx="6" fill="#1e293b" stroke="#334155" stroke-width="1"/>
  <text x="1095" y="32" font-family="system-ui,sans-serif" font-size="12" fill="#94a3b8" text-anchor="middle">↻ Refresh</text>

  <!-- Stat cards row -->
  <!-- Card 1: Total Monitors -->
  <rect x="244" y="72" width="216" height="88" rx="10" fill="#1e293b" stroke="#334155" stroke-width="1" filter="url(#shadow)"/>
  <rect x="244" y="72" width="216" height="88" rx="10" fill="url(#cardBlue)" opacity="0.4"/>
  <rect x="244" y="72" width="4" height="88" rx="2" fill="#3b82f6"/>
  <text x="266" y="96" font-family="system-ui,sans-serif" font-size="11" fill="#94a3b8" text-transform="uppercase" letter-spacing="0.5">TOTAL MONITORS</text>
  <text x="266" y="128" font-family="system-ui,sans-serif" font-size="36" font-weight="700" fill="#3b82f6">12</text>
  <text x="380" y="128" font-family="system-ui,sans-serif" font-size="11" fill="#64748b">configured</text>

  <!-- Card 2: Up -->
  <rect x="472" y="72" width="216" height="88" rx="10" fill="#1e293b" stroke="#334155" stroke-width="1" filter="url(#shadow)"/>
  <rect x="472" y="72" width="216" height="88" rx="10" fill="url(#cardGreen)" opacity="0.4"/>
  <rect x="472" y="72" width="4" height="88" rx="2" fill="#22c55e"/>
  <text x="494" y="96" font-family="system-ui,sans-serif" font-size="11" fill="#94a3b8">ONLINE</text>
  <text x="494" y="128" font-family="system-ui,sans-serif" font-size="36" font-weight="700" fill="#22c55e">10</text>
  <text x="540" y="128" font-family="system-ui,sans-serif" font-size="11" fill="#64748b">monitors up</text>

  <!-- Card 3: Down -->
  <rect x="700" y="72" width="216" height="88" rx="10" fill="#1e293b" stroke="#334155" stroke-width="1" filter="url(#shadow)"/>
  <rect x="700" y="72" width="216" height="88" rx="10" fill="url(#cardRed)" opacity="0.5"/>
  <rect x="700" y="72" width="4" height="88" rx="2" fill="#ef4444"/>
  <text x="722" y="96" font-family="system-ui,sans-serif" font-size="11" fill="#94a3b8">DOWN</text>
  <text x="722" y="128" font-family="system-ui,sans-serif" font-size="36" font-weight="700" fill="#ef4444">1</text>
  <text x="748" y="128" font-family="system-ui,sans-serif" font-size="11" fill="#64748b">monitor down</text>

  <!-- Card 4: Incidents -->
  <rect x="928" y="72" width="216" height="88" rx="10" fill="#1e293b" stroke="#334155" stroke-width="1" filter="url(#shadow)"/>
  <rect x="928" y="72" width="4" height="88" rx="2" fill="#22c55e"/>
  <text x="950" y="96" font-family="system-ui,sans-serif" font-size="11" fill="#94a3b8">ACTIVE INCIDENTS</text>
  <text x="950" y="128" font-family="system-ui,sans-serif" font-size="36" font-weight="700" fill="#22c55e">0</text>
  <text x="976" y="128" font-family="system-ui,sans-serif" font-size="11" fill="#64748b">all clear</text>

  <!-- Monitor grid header -->
  <text x="244" y="186" font-family="system-ui,sans-serif" font-size="14" font-weight="600" fill="#f1f5f9">Monitors</text>
  <rect x="244" y="194" width="900" height="1" fill="#1e293b"/>

  <!-- Column headers -->
  <text x="268" y="213" font-family="system-ui,sans-serif" font-size="11" fill="#475569">STATUS</text>
  <text x="360" y="213" font-family="system-ui,sans-serif" font-size="11" fill="#475569">NAME</text>
  <text x="580" y="213" font-family="system-ui,sans-serif" font-size="11" fill="#475569">TYPE</text>
  <text x="660" y="213" font-family="system-ui,sans-serif" font-size="11" fill="#475569">UPTIME 24H</text>
  <text x="780" y="213" font-family="system-ui,sans-serif" font-size="11" fill="#475569">RESPONSE</text>
  <text x="900" y="213" font-family="system-ui,sans-serif" font-size="11" fill="#475569">PROBE</text>
  <text x="1020" y="213" font-family="system-ui,sans-serif" font-size="11" fill="#475569">INTERVAL</text>
  <rect x="244" y="218" width="900" height="1" fill="#1e293b"/>

  <!-- Monitor rows -->
  <!-- Row 1 - UP -->
  <rect x="244" y="220" width="900" height="42" rx="0" fill="#1e293b" opacity="0.3"/>
  <circle cx="268" cy="241" r="6" fill="#22c55e"/>
  <circle cx="268" cy="241" r="10" fill="#22c55e" opacity="0.15"/>
  <text x="360" y="237" font-family="system-ui,sans-serif" font-size="13" font-weight="600" fill="#f1f5f9">korben.info</text>
  <text x="360" y="253" font-family="system-ui,sans-serif" font-size="11" fill="#475569">https://korben.info</text>
  <rect x="575" y="229" width="44" height="20" rx="4" fill="#1e3a5f"/>
  <text x="597" y="244" font-family="system-ui,sans-serif" font-size="11" fill="#3b82f6" text-anchor="middle">HTTP</text>
  <text x="680" y="244" font-family="system-ui,sans-serif" font-size="13" font-weight="600" fill="#22c55e">99.8%</text>
  <text x="790" y="237" font-family="monospace,system-ui" font-size="12" fill="#f1f5f9">142ms</text>
  <text x="790" y="253" font-family="system-ui,sans-serif" font-size="10" fill="#475569">p95: 280ms</text>
  <text x="900" y="244" font-family="system-ui,sans-serif" font-size="11" fill="#94a3b8">Paris-FR</text>
  <text x="1020" y="244" font-family="monospace,system-ui" font-size="12" fill="#64748b">60s</text>
  <rect x="244" y="261" width="900" height="1" fill="#1e293b" opacity="0.5"/>

  <!-- Row 2 - UP -->
  <circle cx="268" cy="283" r="6" fill="#22c55e"/>
  <circle cx="268" cy="283" r="10" fill="#22c55e" opacity="0.15"/>
  <text x="360" y="279" font-family="system-ui,sans-serif" font-size="13" font-weight="600" fill="#f1f5f9">API Production</text>
  <text x="360" y="295" font-family="system-ui,sans-serif" font-size="11" fill="#475569">https://api.example.com/health</text>
  <rect x="575" y="271" width="44" height="20" rx="4" fill="#1e3a5f"/>
  <text x="597" y="286" font-family="system-ui,sans-serif" font-size="11" fill="#3b82f6" text-anchor="middle">HTTP</text>
  <text x="680" y="286" font-family="system-ui,sans-serif" font-size="13" font-weight="600" fill="#22c55e">100%</text>
  <text x="790" y="279" font-family="monospace,system-ui" font-size="12" fill="#f1f5f9">38ms</text>
  <text x="790" y="295" font-family="system-ui,sans-serif" font-size="10" fill="#475569">p95: 65ms</text>
  <text x="900" y="286" font-family="system-ui,sans-serif" font-size="11" fill="#94a3b8">Frankfurt-DE</text>
  <text x="1020" y="286" font-family="monospace,system-ui" font-size="12" fill="#64748b">30s</text>
  <rect x="244" y="303" width="900" height="1" fill="#1e293b" opacity="0.5"/>

  <!-- Row 3 - DOWN -->
  <rect x="244" y="305" width="900" height="42" rx="0" fill="#ef4444" opacity="0.04"/>
  <circle cx="268" cy="326" r="6" fill="#ef4444"/>
  <circle cx="268" cy="326" r="10" fill="#ef4444" opacity="0.15"/>
  <text x="360" y="322" font-family="system-ui,sans-serif" font-size="13" font-weight="600" fill="#f1f5f9">legacy-app.internal</text>
  <text x="360" y="338" font-family="system-ui,sans-serif" font-size="11" fill="#475569">http://legacy-app.internal:8080</text>
  <rect x="575" y="314" width="44" height="20" rx="4" fill="#1e3a5f"/>
  <text x="597" y="329" font-family="system-ui,sans-serif" font-size="11" fill="#3b82f6" text-anchor="middle">HTTP</text>
  <text x="680" y="329" font-family="system-ui,sans-serif" font-size="13" font-weight="600" fill="#ef4444">81.3%</text>
  <text x="790" y="322" font-family="monospace,system-ui" font-size="12" fill="#ef4444">timeout</text>
  <text x="790" y="338" font-family="system-ui,sans-serif" font-size="10" fill="#ef4444">down 14min</text>
  <text x="900" y="329" font-family="system-ui,sans-serif" font-size="11" fill="#94a3b8">Internal</text>
  <text x="1020" y="329" font-family="monospace,system-ui" font-size="12" fill="#64748b">60s</text>
  <rect x="244" y="346" width="900" height="1" fill="#1e293b" opacity="0.5"/>

  <!-- Row 4 -->
  <circle cx="268" cy="368" r="6" fill="#22c55e"/>
  <circle cx="268" cy="368" r="10" fill="#22c55e" opacity="0.15"/>
  <text x="360" y="364" font-family="system-ui,sans-serif" font-size="13" font-weight="600" fill="#f1f5f9">DNS resolv.conf</text>
  <text x="360" y="380" font-family="system-ui,sans-serif" font-size="11" fill="#475569">example.com — A record</text>
  <rect x="575" y="356" width="40" height="20" rx="4" fill="#2d1b69"/>
  <text x="595" y="371" font-family="system-ui,sans-serif" font-size="11" fill="#a78bfa" text-anchor="middle">DNS</text>
  <text x="680" y="371" font-family="system-ui,sans-serif" font-size="13" font-weight="600" fill="#22c55e">100%</text>
  <text x="790" y="371" font-family="monospace,system-ui" font-size="12" fill="#f1f5f9">8ms</text>
  <text x="900" y="371" font-family="system-ui,sans-serif" font-size="11" fill="#94a3b8">Paris-FR</text>
  <text x="1020" y="371" font-family="monospace,system-ui" font-size="12" fill="#64748b">120s</text>
  <rect x="244" y="388" width="900" height="1" fill="#1e293b" opacity="0.5"/>

  <!-- Row 5 -->
  <circle cx="268" cy="410" r="6" fill="#22c55e"/>
  <circle cx="268" cy="410" r="10" fill="#22c55e" opacity="0.15"/>
  <text x="360" y="406" font-family="system-ui,sans-serif" font-size="13" font-weight="600" fill="#f1f5f9">TCP — PostgreSQL</text>
  <text x="360" y="422" font-family="system-ui,sans-serif" font-size="11" fill="#475569">db.internal:5432</text>
  <rect x="575" y="398" width="40" height="20" rx="4" fill="#1a2f1a"/>
  <text x="595" y="413" font-family="system-ui,sans-serif" font-size="11" fill="#22c55e" text-anchor="middle">TCP</text>
  <text x="680" y="413" font-family="system-ui,sans-serif" font-size="13" font-weight="600" fill="#22c55e">99.9%</text>
  <text x="790" y="413" font-family="monospace,system-ui" font-size="12" fill="#f1f5f9">2ms</text>
  <text x="900" y="413" font-family="system-ui,sans-serif" font-size="11" fill="#94a3b8">Internal</text>
  <text x="1020" y="413" font-family="monospace,system-ui" font-size="12" fill="#64748b">30s</text>
  <rect x="244" y="430" width="900" height="1" fill="#1e293b" opacity="0.5"/>

  <!-- Row 6 -->
  <circle cx="268" cy="452" r="6" fill="#22c55e"/>
  <circle cx="268" cy="452" r="10" fill="#22c55e" opacity="0.15"/>
  <text x="360" y="448" font-family="system-ui,sans-serif" font-size="13" font-weight="600" fill="#f1f5f9">checkout-scenario</text>
  <text x="360" y="464" font-family="system-ui,sans-serif" font-size="11" fill="#475569">Playwright — e-commerce flow</text>
  <rect x="575" y="440" width="64" height="20" rx="4" fill="#2d1b3d"/>
  <text x="607" y="455" font-family="system-ui,sans-serif" font-size="11" fill="#c084fc" text-anchor="middle">Scenario</text>
  <text x="680" y="455" font-family="system-ui,sans-serif" font-size="13" font-weight="600" fill="#22c55e">97.4%</text>
  <text x="790" y="455" font-family="monospace,system-ui" font-size="12" fill="#f1f5f9">1.24s</text>
  <text x="900" y="455" font-family="system-ui,sans-serif" font-size="11" fill="#94a3b8">Frankfurt-DE</text>
  <text x="1020" y="455" font-family="monospace,system-ui" font-size="12" fill="#64748b">300s</text>
  <rect x="244" y="472" width="900" height="1" fill="#1e293b" opacity="0.5"/>

  <!-- Recent alerts section -->
  <text x="244" y="502" font-family="system-ui,sans-serif" font-size="14" font-weight="600" fill="#f1f5f9">Recent Alerts</text>
  <rect x="244" y="510" width="900" height="1" fill="#1e293b"/>

  <!-- Alert row 1 -->
  <rect x="244" y="514" width="900" height="38" rx="6" fill="#7f1d1d" opacity="0.2"/>
  <rect x="244" y="514" width="3" height="38" rx="1" fill="#ef4444"/>
  <circle cx="262" cy="533" r="5" fill="#ef4444"/>
  <text x="276" y="529" font-family="system-ui,sans-serif" font-size="12" font-weight="600" fill="#fca5a5">legacy-app.internal is DOWN</text>
  <text x="276" y="545" font-family="system-ui,sans-serif" font-size="11" fill="#64748b">Connection refused — timeout after 5000ms</text>
  <text x="1060" y="537" font-family="system-ui,sans-serif" font-size="11" fill="#475569" text-anchor="end">14 min ago</text>

  <!-- Alert row 2 -->
  <rect x="244" y="558" width="900" height="38" rx="6" fill="#1e293b" opacity="0.5"/>
  <rect x="244" y="558" width="3" height="38" rx="1" fill="#22c55e"/>
  <circle cx="262" cy="577" r="5" fill="#22c55e"/>
  <text x="276" y="573" font-family="system-ui,sans-serif" font-size="12" font-weight="600" fill="#86efac">legacy-app.internal recovered</text>
  <text x="276" y="589" font-family="system-ui,sans-serif" font-size="11" fill="#64748b">Monitor back online after 8 minutes</text>
  <text x="1060" y="581" font-family="system-ui,sans-serif" font-size="11" fill="#475569" text-anchor="end">2h ago</text>

  <!-- Alert row 3 -->
  <rect x="244" y="602" width="900" height="38" rx="6" fill="#1e293b" opacity="0.5"/>
  <rect x="244" y="602" width="3" height="38" rx="1" fill="#f59e0b"/>
  <circle cx="262" cy="621" r="5" fill="#f59e0b"/>
  <text x="276" y="617" font-family="system-ui,sans-serif" font-size="12" font-weight="600" fill="#fcd34d">checkout-scenario — slow response</text>
  <text x="276" y="633" font-family="system-ui,sans-serif" font-size="11" fill="#64748b">Response time 3.2s exceeded threshold 2.0s</text>
  <text x="1060" y="625" font-family="system-ui,sans-serif" font-size="11" fill="#475569" text-anchor="end">5h ago</text>

  <!-- Bottom status bar -->
  <rect x="220" y="650" width="980" height="25" fill="#0c1524"/>
  <rect x="220" y="650" width="980" height="1" fill="#1e293b"/>
  <circle cx="234" cy="662" r="4" fill="#22c55e"/>
  <text x="244" y="666" font-family="system-ui,sans-serif" font-size="10" fill="#475569">WebSocket connected · Last update: just now · 3 probes active</text>
</svg>
