<svg xmlns="http://www.w3.org/2000/svg" viewBox="0 0 1200 675" width="1200" height="675" style="font-family:'Plus Jakarta Sans',system-ui,sans-serif;">

  <!-- bg-base -->
  <rect width="1200" height="675" fill="#0c1117"/>

  <!-- ═══════════ SIDEBAR 224px ═══════════ -->
  <rect width="224" height="675" fill="#131920"/>
  <rect x="223" y="0" width="1" height="675" fill="#1e2d3d"/>

  <!-- Logo -->
  <rect x="16" y="12" width="26" height="26" rx="7" fill="#4f9cf9"/>
  <text x="29" y="27" text-anchor="middle" fill="#0c1117" font-size="13" font-weight="800">W</text>
  <text x="50" y="28" fill="#e4ecf4" font-size="14" font-weight="700">WhatIsUp</text>

  <rect x="16" y="48" width="192" height="1" fill="#1e2d3d"/>

  <!-- Nav — Dashboard -->
  <circle cx="29" cy="73" r="6" fill="none" stroke="#4d6070" stroke-width="1.5"/>
  <text x="44" y="78" fill="#8899aa" font-size="13">Dashboard</text>

  <!-- Nav — Monitors (active) -->
  <rect x="8" y="90" width="208" height="34" rx="7" fill="#4f9cf9" opacity="0.12"/>
  <rect x="8" y="90" width="3" height="34" rx="2" fill="#4f9cf9"/>
  <circle cx="29" cy="107" r="6" fill="none" stroke="#4f9cf9" stroke-width="1.5"/>
  <text x="44" y="112" fill="#4f9cf9" font-size="13" font-weight="600">Monitors</text>
  <rect x="190" y="100" width="22" height="14" rx="7" fill="#4f9cf9" opacity="0.2"/>
  <text x="201" y="111" text-anchor="middle" fill="#4f9cf9" font-size="9" font-weight="700">12</text>

  <!-- Nav — Probes -->
  <circle cx="29" cy="141" r="6" fill="none" stroke="#4d6070" stroke-width="1.5"/>
  <text x="44" y="146" fill="#8899aa" font-size="13">Probes</text>

  <!-- Nav — Groups -->
  <circle cx="29" cy="175" r="6" fill="none" stroke="#4d6070" stroke-width="1.5"/>
  <text x="44" y="180" fill="#8899aa" font-size="13">Groups</text>

  <!-- Nav — Alerts -->
  <circle cx="29" cy="209" r="6" fill="none" stroke="#4d6070" stroke-width="1.5"/>
  <text x="44" y="214" fill="#8899aa" font-size="13">Alerts</text>

  <!-- Nav — Maintenance -->
  <circle cx="29" cy="243" r="6" fill="none" stroke="#4d6070" stroke-width="1.5"/>
  <text x="44" y="248" fill="#8899aa" font-size="13">Maintenance</text>

  <!-- Nav — Audit -->
  <circle cx="29" cy="277" r="6" fill="none" stroke="#4d6070" stroke-width="1.5"/>
  <text x="44" y="282" fill="#8899aa" font-size="13">Audit</text>

  <!-- Nav — Settings -->
  <circle cx="29" cy="311" r="6" fill="none" stroke="#4d6070" stroke-width="1.5"/>
  <text x="44" y="316" fill="#8899aa" font-size="13">Settings</text>

  <!-- Sidebar user -->
  <rect x="8" y="630" width="208" height="36" rx="7" fill="#1a2230"/>
  <circle cx="28" cy="648" r="11" fill="#202c3a"/>
  <text x="28" y="653" text-anchor="middle" fill="#8899aa" font-size="11" font-weight="600">A</text>
  <text x="47" y="644" fill="#e4ecf4" font-size="12" font-weight="600">admin</text>
  <text x="47" y="657" fill="#4d6070" font-size="10">superadmin</text>

  <!-- ═══════════ TOPBAR 48px ═══════════ -->
  <rect x="224" y="0" width="976" height="48" fill="#131920"/>
  <rect x="224" y="47" width="976" height="1" fill="#1e2d3d"/>

  <text x="244" y="30" fill="#e4ecf4" font-size="16" font-weight="700">Monitors</text>

  <!-- + Add Monitor button -->
  <rect x="986" y="10" width="136" height="28" rx="7" fill="#4f9cf9"/>
  <text x="1054" y="28" text-anchor="middle" fill="#0c1117" font-size="12" font-weight="700">+ Add Monitor</text>

  <!-- Lang toggle FR -->
  <rect x="1132" y="12" width="42" height="24" rx="6" fill="#1a2230" stroke="#1e2d3d" stroke-width="1"/>
  <text x="1153" y="28" text-anchor="middle" fill="#8899aa" font-size="11" font-weight="600">FR</text>

  <!-- ═══════════ MAIN CONTENT ═══════════ -->

  <!-- ── Search bar + filters ── -->
  <!-- Search input -->
  <rect x="244" y="62" width="340" height="32" rx="7" fill="#1a2230" stroke="#1e2d3d" stroke-width="1"/>
  <!-- search icon (magnifier) -->
  <circle cx="264" cy="78" r="6" fill="none" stroke="#4d6070" stroke-width="1.5"/>
  <line x1="268" y1="82" x2="272" y2="86" stroke="#4d6070" stroke-width="1.5" stroke-linecap="round"/>
  <text x="280" y="83" fill="#4d6070" font-size="12">Search monitors…</text>

  <!-- Filter buttons -->
  <!-- All (active) -->
  <rect x="596" y="62" width="44" height="32" rx="7" fill="#4f9cf9" opacity="0.18" stroke="#4f9cf9" stroke-width="1"/>
  <text x="618" y="83" text-anchor="middle" fill="#4f9cf9" font-size="12" font-weight="600">All</text>

  <!-- Up -->
  <rect x="648" y="62" width="44" height="32" rx="7" fill="#1a2230" stroke="#1e2d3d" stroke-width="1"/>
  <text x="670" y="83" text-anchor="middle" fill="#8899aa" font-size="12">Up</text>

  <!-- Down -->
  <rect x="700" y="62" width="56" height="32" rx="7" fill="#1a2230" stroke="#1e2d3d" stroke-width="1"/>
  <text x="728" y="83" text-anchor="middle" fill="#8899aa" font-size="12">Down</text>

  <!-- Type filter -->
  <rect x="772" y="62" width="120" height="32" rx="7" fill="#1a2230" stroke="#1e2d3d" stroke-width="1"/>
  <text x="820" y="83" text-anchor="middle" fill="#8899aa" font-size="12">All types ▾</text>

  <!-- Showing count -->
  <text x="244" y="116" fill="#4d6070" font-size="11">Showing 8 monitors</text>

  <!-- ── Table header ── -->
  <rect x="244" y="122" width="924" height="30" rx="6" fill="#1a2230"/>
  <text x="266" y="142" fill="#4d6070" font-size="10" font-weight="700" letter-spacing="0.5">STATUS</text>
  <text x="340" y="142" fill="#4d6070" font-size="10" font-weight="700" letter-spacing="0.5">NAME / URL</text>
  <text x="526" y="142" fill="#4d6070" font-size="10" font-weight="700" letter-spacing="0.5">TYPE</text>
  <text x="604" y="142" fill="#4d6070" font-size="10" font-weight="700" letter-spacing="0.5">UPTIME 24H</text>
  <text x="706" y="142" fill="#4d6070" font-size="10" font-weight="700" letter-spacing="0.5">RESPONSE</text>
  <text x="806" y="142" fill="#4d6070" font-size="10" font-weight="700" letter-spacing="0.5">PROBE</text>
  <text x="898" y="142" fill="#4d6070" font-size="10" font-weight="700" letter-spacing="0.5">INTERVAL</text>
  <text x="968" y="142" fill="#4d6070" font-size="10" font-weight="700" letter-spacing="0.5">ACTIONS</text>

  <!-- ── Row 1 — UP http ── -->
  <rect x="244" y="152" width="924" height="38" fill="#131920"/>
  <rect x="244" y="189" width="924" height="1" fill="#1e2d3d"/>
  <circle cx="264" cy="171" r="6" fill="#34d399"/>
  <text x="340" y="167" fill="#e4ecf4" font-size="12" font-weight="600">api.example.com</text>
  <text x="340" y="182" fill="#4d6070" font-size="10">https://api.example.com/health</text>
  <rect x="522" y="160" width="36" height="18" rx="5" fill="#4f9cf9" opacity="0.18"/>
  <text x="540" y="173" text-anchor="middle" fill="#4f9cf9" font-size="10" font-weight="600">http</text>
  <text x="602" y="175" fill="#34d399" font-size="12">99.98%</text>
  <text x="704" y="175" fill="#e4ecf4" font-size="12">118 ms</text>
  <rect x="802" y="162" width="48" height="16" rx="4" fill="#202c3a"/>
  <text x="826" y="174" text-anchor="middle" fill="#8899aa" font-size="10">Paris</text>
  <text x="898" y="175" fill="#8899aa" font-size="12">30s</text>
  <!-- edit btn -->
  <rect x="964" y="160" width="28" height="22" rx="5" fill="#202c3a" stroke="#1e2d3d" stroke-width="1"/>
  <text x="978" y="175" text-anchor="middle" fill="#8899aa" font-size="13">✎</text>

  <!-- ── Row 2 — UP http ── -->
  <rect x="244" y="190" width="924" height="38" fill="#131920"/>
  <rect x="244" y="227" width="924" height="1" fill="#1e2d3d"/>
  <circle cx="264" cy="209" r="6" fill="#34d399"/>
  <text x="340" y="205" fill="#e4ecf4" font-size="12" font-weight="600">web-frontend</text>
  <text x="340" y="220" fill="#4d6070" font-size="10">https://app.example.com</text>
  <rect x="522" y="198" width="36" height="18" rx="5" fill="#4f9cf9" opacity="0.18"/>
  <text x="540" y="211" text-anchor="middle" fill="#4f9cf9" font-size="10" font-weight="600">http</text>
  <text x="602" y="213" fill="#34d399" font-size="12">100%</text>
  <text x="704" y="213" fill="#e4ecf4" font-size="12">89 ms</text>
  <rect x="802" y="200" width="70" height="16" rx="4" fill="#202c3a"/>
  <text x="837" y="212" text-anchor="middle" fill="#8899aa" font-size="10">Frankfurt</text>
  <text x="898" y="213" fill="#8899aa" font-size="12">60s</text>
  <rect x="964" y="198" width="28" height="22" rx="5" fill="#202c3a" stroke="#1e2d3d" stroke-width="1"/>
  <text x="978" y="213" text-anchor="middle" fill="#8899aa" font-size="13">✎</text>

  <!-- ── Row 3 — DOWN tcp (fond rougeâtre) ── -->
  <rect x="244" y="228" width="924" height="38" fill="#f87171" opacity="0.05"/>
  <rect x="244" y="265" width="924" height="1" fill="#1e2d3d"/>
  <circle cx="264" cy="247" r="10" fill="#f87171" opacity="0.18"/>
  <circle cx="264" cy="247" r="6" fill="#f87171"/>
  <text x="340" y="243" fill="#e4ecf4" font-size="12" font-weight="600">db-postgres-primary</text>
  <text x="340" y="258" fill="#4d6070" font-size="10">tcp://db.internal:5432</text>
  <rect x="522" y="236" width="30" height="18" rx="5" fill="#fbbf24" opacity="0.18"/>
  <text x="537" y="249" text-anchor="middle" fill="#fbbf24" font-size="10" font-weight="600">tcp</text>
  <text x="602" y="251" fill="#f87171" font-size="12">87.32%</text>
  <text x="704" y="251" fill="#4d6070" font-size="12">—</text>
  <rect x="802" y="238" width="46" height="16" rx="4" fill="#202c3a"/>
  <text x="825" y="250" text-anchor="middle" fill="#8899aa" font-size="10">Saran</text>
  <text x="898" y="251" fill="#8899aa" font-size="12">30s</text>
  <rect x="964" y="236" width="28" height="22" rx="5" fill="#202c3a" stroke="#1e2d3d" stroke-width="1"/>
  <text x="978" y="251" text-anchor="middle" fill="#f87171" font-size="13">✎</text>

  <!-- ── Row 4 — UP scenario ── -->
  <rect x="244" y="266" width="924" height="38" fill="#131920"/>
  <rect x="244" y="303" width="924" height="1" fill="#1e2d3d"/>
  <circle cx="264" cy="285" r="6" fill="#34d399"/>
  <text x="340" y="281" fill="#e4ecf4" font-size="12" font-weight="600">checkout-flow</text>
  <text x="340" y="296" fill="#4d6070" font-size="10">Playwright scenario</text>
  <rect x="518" y="274" width="54" height="18" rx="5" fill="#8899aa" opacity="0.15"/>
  <text x="545" y="287" text-anchor="middle" fill="#8899aa" font-size="10" font-weight="600">scenario</text>
  <text x="602" y="289" fill="#34d399" font-size="12">99.50%</text>
  <text x="704" y="289" fill="#e4ecf4" font-size="12">2340 ms</text>
  <rect x="802" y="276" width="46" height="16" rx="4" fill="#202c3a"/>
  <text x="825" y="288" text-anchor="middle" fill="#8899aa" font-size="10">Paris</text>
  <text x="898" y="289" fill="#8899aa" font-size="12">5m</text>
  <rect x="964" y="274" width="28" height="22" rx="5" fill="#202c3a" stroke="#1e2d3d" stroke-width="1"/>
  <text x="978" y="289" text-anchor="middle" fill="#8899aa" font-size="13">✎</text>

  <!-- ── Row 5 — UP dns ── -->
  <rect x="244" y="304" width="924" height="38" fill="#131920"/>
  <rect x="244" y="341" width="924" height="1" fill="#1e2d3d"/>
  <circle cx="264" cy="323" r="6" fill="#34d399"/>
  <text x="340" y="319" fill="#e4ecf4" font-size="12" font-weight="600">dns-resolver</text>
  <text x="340" y="334" fill="#4d6070" font-size="10">dns://8.8.8.8 — A record</text>
  <rect x="522" y="312" width="30" height="18" rx="5" fill="#34d399" opacity="0.18"/>
  <text x="537" y="325" text-anchor="middle" fill="#34d399" font-size="10" font-weight="600">dns</text>
  <text x="602" y="327" fill="#34d399" font-size="12">100%</text>
  <text x="704" y="327" fill="#e4ecf4" font-size="12">22 ms</text>
  <rect x="802" y="314" width="64" height="16" rx="4" fill="#202c3a"/>
  <text x="834" y="326" text-anchor="middle" fill="#8899aa" font-size="10">New York</text>
  <text x="898" y="327" fill="#8899aa" font-size="12">60s</text>
  <rect x="964" y="312" width="28" height="22" rx="5" fill="#202c3a" stroke="#1e2d3d" stroke-width="1"/>
  <text x="978" y="327" text-anchor="middle" fill="#8899aa" font-size="13">✎</text>

  <!-- ── Row 6 — WARN keyword ── -->
  <rect x="244" y="342" width="924" height="38" fill="#fbbf24" opacity="0.04"/>
  <rect x="244" y="379" width="924" height="1" fill="#1e2d3d"/>
  <circle cx="264" cy="361" r="6" fill="#fbbf24"/>
  <text x="340" y="357" fill="#e4ecf4" font-size="12" font-weight="600">search-api-keyword</text>
  <text x="340" y="372" fill="#4d6070" font-size="10">https://search.example.com — keyword: "results"</text>
  <rect x="514" y="350" width="54" height="18" rx="5" fill="#4f9cf9" opacity="0.18"/>
  <text x="541" y="363" text-anchor="middle" fill="#4f9cf9" font-size="10" font-weight="600">keyword</text>
  <text x="602" y="365" fill="#fbbf24" font-size="12">94.20%</text>
  <text x="704" y="365" fill="#e4ecf4" font-size="12">310 ms</text>
  <rect x="802" y="352" width="70" height="16" rx="4" fill="#202c3a"/>
  <text x="837" y="364" text-anchor="middle" fill="#8899aa" font-size="10">Frankfurt</text>
  <text x="898" y="365" fill="#8899aa" font-size="12">30s</text>
  <rect x="964" y="350" width="28" height="22" rx="5" fill="#202c3a" stroke="#1e2d3d" stroke-width="1"/>
  <text x="978" y="365" text-anchor="middle" fill="#8899aa" font-size="13">✎</text>

  <!-- ── Row 7 — UP http ── -->
  <rect x="244" y="380" width="924" height="38" fill="#131920"/>
  <rect x="244" y="417" width="924" height="1" fill="#1e2d3d"/>
  <circle cx="264" cy="399" r="6" fill="#34d399"/>
  <text x="340" y="395" fill="#e4ecf4" font-size="12" font-weight="600">cdn-assets</text>
  <text x="340" y="410" fill="#4d6070" font-size="10">https://cdn.example.com/ping</text>
  <rect x="522" y="388" width="36" height="18" rx="5" fill="#4f9cf9" opacity="0.18"/>
  <text x="540" y="401" text-anchor="middle" fill="#4f9cf9" font-size="10" font-weight="600">http</text>
  <text x="602" y="403" fill="#34d399" font-size="12">99.99%</text>
  <text x="704" y="403" fill="#e4ecf4" font-size="12">54 ms</text>
  <rect x="802" y="390" width="46" height="16" rx="4" fill="#202c3a"/>
  <text x="825" y="402" text-anchor="middle" fill="#8899aa" font-size="10">Saran</text>
  <text x="898" y="403" fill="#8899aa" font-size="12">60s</text>
  <rect x="964" y="388" width="28" height="22" rx="5" fill="#202c3a" stroke="#1e2d3d" stroke-width="1"/>
  <text x="978" y="403" text-anchor="middle" fill="#8899aa" font-size="13">✎</text>

  <!-- ── Row 8 — UP heartbeat ── -->
  <rect x="244" y="418" width="924" height="38" fill="#131920"/>
  <circle cx="264" cy="437" r="6" fill="#34d399"/>
  <text x="340" y="433" fill="#e4ecf4" font-size="12" font-weight="600">cron-backup</text>
  <text x="340" y="448" fill="#4d6070" font-size="10">Heartbeat — last ping 4 min ago</text>
  <rect x="514" y="426" width="56" height="18" rx="5" fill="#4f9cf9" opacity="0.18"/>
  <text x="542" y="439" text-anchor="middle" fill="#4f9cf9" font-size="10" font-weight="600">heartbeat</text>
  <text x="602" y="441" fill="#34d399" font-size="12">99.90%</text>
  <text x="704" y="441" fill="#4d6070" font-size="12">—</text>
  <rect x="802" y="428" width="46" height="16" rx="4" fill="#202c3a"/>
  <text x="825" y="440" text-anchor="middle" fill="#8899aa" font-size="10">Paris</text>
  <text x="898" y="441" fill="#8899aa" font-size="12">5m</text>
  <rect x="964" y="426" width="28" height="22" rx="5" fill="#202c3a" stroke="#1e2d3d" stroke-width="1"/>
  <text x="978" y="441" text-anchor="middle" fill="#8899aa" font-size="13">✎</text>

  <!-- ── Pagination ── -->
  <rect x="244" y="472" width="924" height="1" fill="#1e2d3d"/>
  <text x="244" y="492" fill="#4d6070" font-size="11">Showing 1–8 of 12 monitors</text>
  <!-- pagination buttons -->
  <rect x="1076" y="478" width="32" height="24" rx="5" fill="#1a2230" stroke="#1e2d3d" stroke-width="1"/>
  <text x="1092" y="494" text-anchor="middle" fill="#4d6070" font-size="13">‹</text>
  <rect x="1114" y="478" width="32" height="24" rx="5" fill="#4f9cf9" opacity="0.18"/>
  <text x="1130" y="494" text-anchor="middle" fill="#4f9cf9" font-size="12" font-weight="600">1</text>
  <rect x="1152" y="478" width="16" height="24" rx="5" fill="#1a2230" stroke="#1e2d3d" stroke-width="1"/>
  <text x="1160" y="494" text-anchor="middle" fill="#8899aa" font-size="13">›</text>

</svg>
