<svg xmlns="http://www.w3.org/2000/svg" viewBox="0 0 1200 675" width="1200" height="675" style="font-family:'Plus Jakarta Sans',system-ui,sans-serif;">

  <!-- bg-base -->
  <rect width="1200" height="675" fill="#0c1117"/>

  <!-- ═══════════ SIDEBAR 224px ═══════════ -->
  <rect width="224" height="675" fill="#131920"/>
  <rect x="223" y="0" width="1" height="675" fill="#1e2d3d"/>

  <!-- Logo -->
  <rect x="16" y="12" width="26" height="26" rx="7" fill="#4f9cf9"/>
  <text x="29" y="27" text-anchor="middle" fill="#0c1117" font-size="13" font-weight="800">W</text>
  <text x="50" y="28" fill="#e4ecf4" font-size="14" font-weight="700">WhatIsUp</text>

  <rect x="16" y="48" width="192" height="1" fill="#1e2d3d"/>

  <!-- Nav — Dashboard -->
  <circle cx="29" cy="73" r="6" fill="none" stroke="#4d6070" stroke-width="1.5"/>
  <text x="44" y="78" fill="#8899aa" font-size="13">Dashboard</text>

  <!-- Nav — Monitors -->
  <circle cx="29" cy="107" r="6" fill="none" stroke="#4d6070" stroke-width="1.5"/>
  <text x="44" y="112" fill="#8899aa" font-size="13">Monitors</text>

  <!-- Nav — Probes (active) -->
  <rect x="8" y="124" width="208" height="34" rx="7" fill="#4f9cf9" opacity="0.12"/>
  <rect x="8" y="124" width="3" height="34" rx="2" fill="#4f9cf9"/>
  <circle cx="29" cy="141" r="6" fill="none" stroke="#4f9cf9" stroke-width="1.5"/>
  <text x="44" y="146" fill="#4f9cf9" font-size="13" font-weight="600">Probes</text>
  <rect x="190" y="134" width="22" height="14" rx="7" fill="#4f9cf9" opacity="0.2"/>
  <text x="201" y="145" text-anchor="middle" fill="#4f9cf9" font-size="9" font-weight="700">4</text>

  <!-- Nav — Groups -->
  <circle cx="29" cy="175" r="6" fill="none" stroke="#4d6070" stroke-width="1.5"/>
  <text x="44" y="180" fill="#8899aa" font-size="13">Groups</text>

  <!-- Nav — Alerts -->
  <circle cx="29" cy="209" r="6" fill="none" stroke="#4d6070" stroke-width="1.5"/>
  <text x="44" y="214" fill="#8899aa" font-size="13">Alerts</text>

  <!-- Nav — Maintenance -->
  <circle cx="29" cy="243" r="6" fill="none" stroke="#4d6070" stroke-width="1.5"/>
  <text x="44" y="248" fill="#8899aa" font-size="13">Maintenance</text>

  <!-- Nav — Audit -->
  <circle cx="29" cy="277" r="6" fill="none" stroke="#4d6070" stroke-width="1.5"/>
  <text x="44" y="282" fill="#8899aa" font-size="13">Audit</text>

  <!-- Nav — Settings -->
  <circle cx="29" cy="311" r="6" fill="none" stroke="#4d6070" stroke-width="1.5"/>
  <text x="44" y="316" fill="#8899aa" font-size="13">Settings</text>

  <!-- Sidebar user -->
  <rect x="8" y="630" width="208" height="36" rx="7" fill="#1a2230"/>
  <circle cx="28" cy="648" r="11" fill="#202c3a"/>
  <text x="28" y="653" text-anchor="middle" fill="#8899aa" font-size="11" font-weight="600">A</text>
  <text x="47" y="644" fill="#e4ecf4" font-size="12" font-weight="600">admin</text>
  <text x="47" y="657" fill="#4d6070" font-size="10">superadmin</text>

  <!-- ═══════════ TOPBAR 48px ═══════════ -->
  <rect x="224" y="0" width="976" height="48" fill="#131920"/>
  <rect x="224" y="47" width="976" height="1" fill="#1e2d3d"/>

  <text x="244" y="30" fill="#e4ecf4" font-size="16" font-weight="700">Probes</text>

  <!-- + Register Probe button -->
  <rect x="970" y="10" width="152" height="28" rx="7" fill="#4f9cf9"/>
  <text x="1046" y="28" text-anchor="middle" fill="#0c1117" font-size="12" font-weight="700">+ Register Probe</text>

  <!-- Lang toggle FR -->
  <rect x="1132" y="12" width="42" height="24" rx="6" fill="#1a2230" stroke="#1e2d3d" stroke-width="1"/>
  <text x="1153" y="28" text-anchor="middle" fill="#8899aa" font-size="11" font-weight="600">FR</text>

  <!-- ═══════════ WORLD MAP (Leaflet-style) ═══════════ -->
  <!-- Map container -->
  <rect x="244" y="58" width="924" height="330" rx="10" fill="#0d1421" stroke="#1e2d3d" stroke-width="1"/>

  <!-- Tile grid lines (subtle) -->
  <line x1="244" y1="168" x2="1168" y2="168" stroke="#1a2535" stroke-width="0.5"/>
  <line x1="244" y1="278" x2="1168" y2="278" stroke="#1a2535" stroke-width="0.5"/>
  <line x1="476" y1="58" x2="476" y2="388" stroke="#1a2535" stroke-width="0.5"/>
  <line x1="708" y1="58" x2="708" y2="388" stroke="#1a2535" stroke-width="0.5"/>
  <line x1="940" y1="58" x2="940" y2="388" stroke="#1a2535" stroke-width="0.5"/>

  <!-- ── Continents (simplified shapes) ── -->
  <!-- North America -->
  <path d="M310,90 L420,85 L445,100 L450,145 L430,180 L400,200 L370,215 L340,210 L315,190 L295,160 L290,130 Z" fill="#1a2535" stroke="none"/>
  <!-- Mexico/Central -->
  <path d="M340,210 L370,215 L375,235 L355,255 L330,250 L320,235 Z" fill="#1a2535"/>
  <!-- South America -->
  <path d="M370,255 L410,248 L430,270 L435,320 L415,360 L390,370 L365,355 L350,315 L355,275 Z" fill="#1a2535"/>
  <!-- Europe -->
  <path d="M580,80 L650,75 L680,90 L685,115 L670,130 L645,135 L615,130 L590,115 L575,100 Z" fill="#1a2535"/>
  <!-- Scandinavia appendage -->
  <path d="M615,75 L640,68 L650,75 L630,82 Z" fill="#1a2535"/>
  <!-- UK -->
  <path d="M562,80 L575,76 L578,90 L565,93 Z" fill="#1a2535"/>
  <!-- Africa -->
  <path d="M585,145 L650,140 L690,155 L700,200 L690,260 L660,305 L625,315 L595,305 L570,265 L568,210 L572,165 Z" fill="#1a2535"/>
  <!-- Middle East -->
  <path d="M690,130 L740,125 L760,145 L750,175 L710,180 L688,160 Z" fill="#1a2535"/>
  <!-- Asia -->
  <path d="M710,75 L850,68 L930,80 L960,100 L970,130 L955,160 L900,165 L840,155 L790,160 L750,155 L720,140 L705,115 Z" fill="#1a2535"/>
  <!-- Indian subcontinent -->
  <path d="M790,160 L830,158 L845,190 L820,225 L795,220 L778,195 Z" fill="#1a2535"/>
  <!-- SE Asia / Indonesia (dots) -->
  <ellipse cx="910" cy="195" rx="28" ry="15" fill="#1a2535"/>
  <ellipse cx="955" cy="210" rx="20" ry="10" fill="#1a2535"/>
  <!-- Japan -->
  <ellipse cx="985" cy="110" rx="12" ry="22" fill="#1a2535"/>
  <!-- Australia -->
  <path d="M920,265 L1010,260 L1040,285 L1035,340 L995,360 L940,355 L910,330 L905,295 Z" fill="#1a2535"/>
  <!-- New Zealand -->
  <ellipse cx="1065" cy="340" rx="12" ry="22" fill="#1a2535"/>
  <!-- Greenland -->
  <path d="M460,60 L510,55 L525,70 L515,90 L490,95 L465,85 Z" fill="#1a2535"/>

  <!-- ── Probe markers ── -->
  <!-- Paris (approx lon 2.35°, lat 48.85° → x~624, y~130) -->
  <circle cx="624" cy="120" r="14" fill="#34d399" opacity="0.15"/>
  <circle cx="624" cy="120" r="9" fill="#34d399" opacity="0.3"/>
  <circle cx="624" cy="120" r="5" fill="#34d399"/>
  <!-- tooltip -->
  <rect x="596" y="90" width="108" height="24" rx="5" fill="#202c3a" stroke="#1e2d3d" stroke-width="1"/>
  <circle cx="609" cy="102" r="4" fill="#34d399"/>
  <text x="617" y="106" fill="#e4ecf4" font-size="10" font-weight="600">Paris</text>
  <text x="648" y="106" fill="#34d399" font-size="10" font-weight="600">99.8%</text>
  <!-- pin line -->
  <line x1="624" y1="114" x2="624" y2="114" stroke="#34d399" stroke-width="1"/>

  <!-- Frankfurt (lon 8.68°, lat 50.1° → x~650, y~115) -->
  <circle cx="656" cy="108" r="14" fill="#34d399" opacity="0.15"/>
  <circle cx="656" cy="108" r="9" fill="#34d399" opacity="0.3"/>
  <circle cx="656" cy="108" r="5" fill="#34d399"/>
  <rect x="622" y="76" width="112" height="24" rx="5" fill="#202c3a" stroke="#1e2d3d" stroke-width="1"/>
  <circle cx="635" cy="88" r="4" fill="#34d399"/>
  <text x="643" y="92" fill="#e4ecf4" font-size="10" font-weight="600">Frankfurt</text>
  <text x="702" y="92" fill="#34d399" font-size="10" font-weight="600">100%</text>

  <!-- Saran (lon 1.7°, lat 47.8° → x~620, y~128) -->
  <!-- Slightly offset from Paris for clarity -->
  <circle cx="608" cy="134" r="14" fill="#34d399" opacity="0.15"/>
  <circle cx="608" cy="134" r="9" fill="#34d399" opacity="0.3"/>
  <circle cx="608" cy="134" r="5" fill="#34d399"/>
  <rect x="574" y="148" width="104" height="24" rx="5" fill="#202c3a" stroke="#1e2d3d" stroke-width="1"/>
  <circle cx="587" cy="160" r="4" fill="#34d399"/>
  <text x="595" y="164" fill="#e4ecf4" font-size="10" font-weight="600">Saran</text>
  <text x="628" y="164" fill="#34d399" font-size="10" font-weight="600">98.5%</text>

  <!-- New York (lon -74°, lat 40.7° → x~370, y~145) -->
  <circle cx="366" cy="148" r="14" fill="#34d399" opacity="0.15"/>
  <circle cx="366" cy="148" r="9" fill="#34d399" opacity="0.3"/>
  <circle cx="366" cy="148" r="5" fill="#34d399"/>
  <rect x="326" y="118" width="120" height="24" rx="5" fill="#202c3a" stroke="#1e2d3d" stroke-width="1"/>
  <circle cx="339" cy="130" r="4" fill="#34d399"/>
  <text x="347" y="134" fill="#e4ecf4" font-size="10" font-weight="600">New York</text>
  <text x="400" y="134" fill="#34d399" font-size="10" font-weight="600">97.2%</text>

  <!-- Map attribution -->
  <rect x="1068" y="374" width="96" height="14" rx="3" fill="#0d1421" opacity="0.8"/>
  <text x="1116" y="384" text-anchor="middle" fill="#4d6070" font-size="8">© OpenStreetMap</text>

  <!-- ── Zoom controls ── -->
  <rect x="1148" y="68" width="14" height="28" rx="3" fill="#202c3a" stroke="#1e2d3d" stroke-width="1"/>
  <text x="1155" y="79" text-anchor="middle" fill="#8899aa" font-size="11" font-weight="700">+</text>
  <rect x="1152" y="82" width="6" height="1" fill="#1e2d3d"/>
  <text x="1155" y="93" text-anchor="middle" fill="#8899aa" font-size="11" font-weight="700">−</text>

  <!-- ═══════════ PROBES TABLE ═══════════ -->
  <text x="244" y="416" fill="#e4ecf4" font-size="14" font-weight="700">Registered Probes</text>

  <!-- Table header -->
  <rect x="244" y="424" width="924" height="30" rx="6" fill="#1a2230"/>
  <text x="262" y="444" fill="#4d6070" font-size="10" font-weight="700" letter-spacing="0.5">NAME</text>
  <text x="410" y="444" fill="#4d6070" font-size="10" font-weight="700" letter-spacing="0.5">LOCATION</text>
  <text x="548" y="444" fill="#4d6070" font-size="10" font-weight="700" letter-spacing="0.5">NETWORK TYPE</text>
  <text x="700" y="444" fill="#4d6070" font-size="10" font-weight="700" letter-spacing="0.5">UPTIME 24H</text>
  <text x="820" y="444" fill="#4d6070" font-size="10" font-weight="700" letter-spacing="0.5">LAST SEEN</text>
  <text x="960" y="444" fill="#4d6070" font-size="10" font-weight="700" letter-spacing="0.5">STATUS</text>

  <!-- Row 1 — Paris -->
  <rect x="244" y="454" width="924" height="40" fill="#131920"/>
  <rect x="244" y="493" width="924" height="1" fill="#1e2d3d"/>
  <!-- probe icon -->
  <circle cx="262" cy="474" r="7" fill="#202c3a"/>
  <circle cx="262" cy="474" r="3" fill="#34d399"/>
  <text x="280" y="469" fill="#e4ecf4" font-size="12" font-weight="600">probe-paris-01</text>
  <text x="280" y="483" fill="#4d6070" font-size="10" style="font-family:'JetBrains Mono',monospace;">10.0.1.10</text>
  <text x="410" y="478" fill="#e4ecf4" font-size="12">Paris, France</text>
  <!-- badge external -->
  <rect x="545" y="463" width="62" height="18" rx="5" fill="#4f9cf9" opacity="0.18"/>
  <text x="576" y="476" text-anchor="middle" fill="#4f9cf9" font-size="10" font-weight="600">external</text>
  <text x="700" y="478" fill="#34d399" font-size="12">99.8%</text>
  <text x="820" y="478" fill="#8899aa" font-size="12">12s ago</text>
  <rect x="956" y="463" width="40" height="18" rx="9" fill="#34d399" opacity="0.15"/>
  <text x="976" y="476" text-anchor="middle" fill="#34d399" font-size="10" font-weight="600">UP</text>

  <!-- Row 2 — Frankfurt -->
  <rect x="244" y="494" width="924" height="40" fill="#131920"/>
  <rect x="244" y="533" width="924" height="1" fill="#1e2d3d"/>
  <circle cx="262" cy="514" r="7" fill="#202c3a"/>
  <circle cx="262" cy="514" r="3" fill="#34d399"/>
  <text x="280" y="509" fill="#e4ecf4" font-size="12" font-weight="600">probe-frankfurt-01</text>
  <text x="280" y="523" fill="#4d6070" font-size="10" style="font-family:'JetBrains Mono',monospace;">10.0.2.10</text>
  <text x="410" y="518" fill="#e4ecf4" font-size="12">Frankfurt, Germany</text>
  <!-- badge external -->
  <rect x="545" y="503" width="62" height="18" rx="5" fill="#4f9cf9" opacity="0.18"/>
  <text x="576" y="516" text-anchor="middle" fill="#4f9cf9" font-size="10" font-weight="600">external</text>
  <text x="700" y="518" fill="#34d399" font-size="12">100%</text>
  <text x="820" y="518" fill="#8899aa" font-size="12">8s ago</text>
  <rect x="956" y="503" width="40" height="18" rx="9" fill="#34d399" opacity="0.15"/>
  <text x="976" y="516" text-anchor="middle" fill="#34d399" font-size="10" font-weight="600">UP</text>

  <!-- Row 3 — Saran -->
  <rect x="244" y="534" width="924" height="40" fill="#131920"/>
  <rect x="244" y="573" width="924" height="1" fill="#1e2d3d"/>
  <circle cx="262" cy="554" r="7" fill="#202c3a"/>
  <circle cx="262" cy="554" r="3" fill="#34d399"/>
  <text x="280" y="549" fill="#e4ecf4" font-size="12" font-weight="600">probe-saran-dc</text>
  <text x="280" y="563" fill="#4d6070" font-size="10" style="font-family:'JetBrains Mono',monospace;">192.168.10.5</text>
  <text x="410" y="558" fill="#e4ecf4" font-size="12">Saran, France</text>
  <!-- badge internal -->
  <rect x="545" y="543" width="56" height="18" rx="5" fill="#8899aa" opacity="0.18"/>
  <text x="573" y="556" text-anchor="middle" fill="#8899aa" font-size="10" font-weight="600">internal</text>
  <text x="700" y="558" fill="#34d399" font-size="12">98.5%</text>
  <text x="820" y="558" fill="#8899aa" font-size="12">45s ago</text>
  <rect x="956" y="543" width="40" height="18" rx="9" fill="#34d399" opacity="0.15"/>
  <text x="976" y="556" text-anchor="middle" fill="#34d399" font-size="10" font-weight="600">UP</text>

  <!-- Row 4 — New York -->
  <rect x="244" y="574" width="924" height="40" fill="#131920"/>
  <circle cx="262" cy="594" r="7" fill="#202c3a"/>
  <circle cx="262" cy="594" r="3" fill="#34d399"/>
  <text x="280" y="589" fill="#e4ecf4" font-size="12" font-weight="600">probe-nyc-01</text>
  <text x="280" y="603" fill="#4d6070" font-size="10" style="font-family:'JetBrains Mono',monospace;">10.1.0.20</text>
  <text x="410" y="598" fill="#e4ecf4" font-size="12">New York, USA</text>
  <!-- badge external -->
  <rect x="545" y="583" width="62" height="18" rx="5" fill="#4f9cf9" opacity="0.18"/>
  <text x="576" y="596" text-anchor="middle" fill="#4f9cf9" font-size="10" font-weight="600">external</text>
  <text x="700" y="598" fill="#34d399" font-size="12">97.2%</text>
  <text x="820" y="598" fill="#8899aa" font-size="12">1m ago</text>
  <rect x="956" y="583" width="40" height="18" rx="9" fill="#34d399" opacity="0.15"/>
  <text x="976" y="596" text-anchor="middle" fill="#34d399" font-size="10" font-weight="600">UP</text>

  <!-- Bottom border line -->
  <rect x="244" y="613" width="924" height="1" fill="#1e2d3d"/>

</svg>
