<svg xmlns="http://www.w3.org/2000/svg" width="1200" height="675" viewBox="0 0 1200 675">
  <defs>
    <filter id="shadow">
      <feDropShadow dx="0" dy="2" stdDeviation="4" flood-color="#00000066"/>
    </filter>
    <filter id="markerGlow">
      <feDropShadow dx="0" dy="0" stdDeviation="6" flood-color="#22c55e" flood-opacity="0.6"/>
    </filter>
    <filter id="markerGlowRed">
      <feDropShadow dx="0" dy="0" stdDeviation="6" flood-color="#ef4444" flood-opacity="0.6"/>
    </filter>
  </defs>

  <!-- Background -->
  <rect width="1200" height="675" fill="#0f172a"/>

  <!-- Sidebar -->
  <rect x="0" y="0" width="220" height="675" fill="#0c1524"/>
  <rect x="219" y="0" width="1" height="675" fill="#1e293b"/>

  <!-- Logo -->
  <rect x="18" y="20" width="10" height="10" rx="2" fill="#3b82f6"/>
  <rect x="32" y="20" width="10" height="10" rx="2" fill="#22c55e"/>
  <text x="48" y="31" font-family="system-ui,sans-serif" font-size="15" font-weight="700" fill="#f1f5f9">WhatIsUp</text>
  <rect x="12" y="52" width="196" height="1" fill="#1e293b"/>

  <!-- Nav -->
  <circle cx="26" cy="80" r="4" fill="#475569"/>
  <text x="40" y="85" font-family="system-ui,sans-serif" font-size="13" fill="#64748b">Dashboard</text>
  <circle cx="26" cy="118" r="4" fill="#475569"/>
  <text x="40" y="123" font-family="system-ui,sans-serif" font-size="13" fill="#64748b">Monitors</text>
  <rect x="8" y="136" width="204" height="36" rx="8" fill="#3b82f6" opacity="0.15"/>
  <rect x="8" y="136" width="3" height="36" rx="1" fill="#3b82f6"/>
  <circle cx="26" cy="154" r="4" fill="#3b82f6"/>
  <text x="40" y="159" font-family="system-ui,sans-serif" font-size="13" font-weight="600" fill="#3b82f6">Probes</text>
  <circle cx="26" cy="188" r="4" fill="#475569"/>
  <text x="40" y="193" font-family="system-ui,sans-serif" font-size="13" fill="#64748b">Alerts</text>
  <circle cx="26" cy="222" r="4" fill="#475569"/>
  <text x="40" y="227" font-family="system-ui,sans-serif" font-size="13" fill="#64748b">Maintenance</text>
  <circle cx="26" cy="256" r="4" fill="#475569"/>
  <text x="40" y="261" font-family="system-ui,sans-serif" font-size="13" fill="#64748b">Audit</text>
  <rect x="12" y="630" width="196" height="1" fill="#1e293b"/>
  <circle cx="28" cy="653" r="13" fill="#1e40af"/>
  <text x="28" y="657" font-family="system-ui,sans-serif" font-size="11" font-weight="700" fill="#fff" text-anchor="middle">A</text>
  <text x="48" y="649" font-family="system-ui,sans-serif" font-size="12" fill="#94a3b8">admin@local</text>
  <text x="48" y="663" font-family="system-ui,sans-serif" font-size="10" fill="#475569">Superadmin</text>

  <!-- Main content -->
  <rect x="220" y="0" width="980" height="675" fill="#0f172a"/>

  <!-- Header -->
  <rect x="220" y="0" width="980" height="56" fill="#0c1524"/>
  <rect x="220" y="55" width="980" height="1" fill="#1e293b"/>
  <text x="244" y="33" font-family="system-ui,sans-serif" font-size="20" font-weight="700" fill="#f1f5f9">Probes</text>
  <text x="244" y="50" font-family="system-ui,sans-serif" font-size="12" fill="#475569">Geographic monitoring nodes</text>
  <rect x="1050" y="14" width="130" height="30" rx="6" fill="#3b82f6"/>
  <text x="1115" y="33" font-family="system-ui,sans-serif" font-size="12" font-weight="600" fill="#fff" text-anchor="middle">+ Register probe</text>

  <!-- Tabs -->
  <rect x="244" y="64" width="68" height="30" rx="6" fill="#1e293b" stroke="#334155" stroke-width="1"/>
  <text x="278" y="83" font-family="system-ui,sans-serif" font-size="13" fill="#64748b" text-anchor="middle">List</text>
  <rect x="320" y="64" width="68" height="30" rx="6" fill="#3b82f6"/>
  <text x="354" y="83" font-family="system-ui,sans-serif" font-size="13" font-weight="600" fill="#fff" text-anchor="middle">Map</text>

  <!-- Stats strip -->
  <rect x="244" y="104" width="900" height="52" rx="8" fill="#1e293b" stroke="#334155" stroke-width="1"/>
  <circle cx="290" cy="130" r="6" fill="#22c55e"/>
  <text x="306" y="126" font-family="system-ui,sans-serif" font-size="12" fill="#f1f5f9" font-weight="600">3 Online</text>
  <text x="306" y="142" font-family="system-ui,sans-serif" font-size="10" fill="#64748b">All healthy</text>
  <rect x="380" y="114" width="1" height="24" fill="#334155"/>
  <circle cx="430" cy="130" r="6" fill="#ef4444"/>
  <text x="446" y="126" font-family="system-ui,sans-serif" font-size="12" fill="#f1f5f9" font-weight="600">1 Offline</text>
  <text x="446" y="142" font-family="system-ui,sans-serif" font-size="10" fill="#64748b">Check connection</text>
  <rect x="540" y="114" width="1" height="24" fill="#334155"/>
  <text x="560" y="126" font-family="system-ui,sans-serif" font-size="12" fill="#f1f5f9" font-weight="600">4 Total probes</text>
  <text x="560" y="142" font-family="system-ui,sans-serif" font-size="10" fill="#64748b">2 external · 2 internal</text>

  <!-- World map background -->
  <rect x="244" y="166" width="900" height="480" rx="10" fill="#0d1f35" stroke="#334155" stroke-width="1"/>

  <!-- Map grid lines -->
  <g opacity="0.1" stroke="#94a3b8" stroke-width="0.5">
    <line x1="244" y1="246" x2="1144" y2="246"/>
    <line x1="244" y1="326" x2="1144" y2="326"/>
    <line x1="244" y1="406" x2="1144" y2="406"/>
    <line x1="244" y1="486" x2="1144" y2="486"/>
    <line x1="244" y1="566" x2="1144" y2="566"/>
    <line x1="394" y1="166" x2="394" y2="646"/>
    <line x1="544" y1="166" x2="544" y2="646"/>
    <line x1="694" y1="166" x2="694" y2="646"/>
    <line x1="844" y1="166" x2="844" y2="646"/>
    <line x1="994" y1="166" x2="994" y2="646"/>
  </g>

  <!-- Continents -->
  <!-- North America -->
  <path d="M280,200 C295,196 320,192 345,196 C370,200 385,210 390,225 C395,240 388,260 380,272 C372,284 358,290 345,295 C332,300 318,302 305,298 C292,294 280,285 275,270 C270,255 268,238 270,224 Z" fill="#1e3a5f" opacity="0.7"/>
  <path d="M310,300 C318,302 325,306 328,315 C331,324 326,332 320,338 C314,344 306,346 300,342 C294,338 290,330 292,320 Z" fill="#1e3a5f" opacity="0.6"/>
  <!-- South America -->
  <path d="M335,355 C350,350 365,352 375,362 C385,372 388,390 384,410 C380,430 368,448 354,458 C340,468 324,470 312,462 C300,454 294,436 296,416 C298,396 306,378 320,366 Z" fill="#1e3a5f" opacity="0.7"/>
  <!-- Greenland -->
  <path d="M432,182 C444,178 456,180 462,188 C468,196 464,208 455,213 C446,218 434,216 428,208 C422,200 422,190 428,185 Z" fill="#1e3a5f" opacity="0.5"/>
  <!-- Europe -->
  <path d="M555,200 C568,195 584,197 595,206 C606,215 608,228 602,238 C596,248 582,253 568,250 C554,247 545,236 546,223 Z" fill="#1e3a5f" opacity="0.75"/>
  <!-- Africa -->
  <path d="M568,258 C584,252 600,255 610,268 C620,281 622,302 618,325 C614,348 602,368 588,378 C574,388 558,390 546,382 C534,374 528,354 530,332 C532,310 542,288 552,272 Z" fill="#1e3a5f" opacity="0.75"/>
  <!-- Russia / North Asia -->
  <path d="M612,185 C670,178 750,175 820,180 C890,185 950,200 985,220 C1020,240 1030,262 1018,282 C1006,302 978,315 944,320 C910,325 872,318 838,304 C804,290 778,272 750,262 C722,252 692,252 668,260 C644,268 628,282 620,298" fill="#1e3a5f" opacity="0.75" stroke="none"/>
  <!-- Middle East -->
  <path d="M630,268 C640,263 652,265 658,275 C664,285 660,298 650,304 C640,310 628,306 622,296 Z" fill="#1e3a5f" opacity="0.65"/>
  <!-- India -->
  <path d="M682,275 C692,270 702,274 706,286 C710,298 704,314 694,322 C684,330 672,328 666,316 C660,304 662,288 670,278 Z" fill="#1e3a5f" opacity="0.7"/>
  <!-- Southeast Asia -->
  <path d="M780,272 C792,268 802,272 806,284 C810,296 804,310 794,314 C784,318 774,312 770,300 Z" fill="#1e3a5f" opacity="0.65"/>
  <!-- Australia -->
  <path d="M820,382 C840,376 862,378 876,390 C890,402 892,422 882,438 C872,454 852,460 832,456 C812,452 800,434 802,414 C804,394 814,384 826,380 Z" fill="#1e3a5f" opacity="0.7"/>
  <!-- Japan -->
  <path d="M892,230 C898,226 906,228 908,236 C910,244 906,252 900,254 C894,256 888,252 886,244 Z" fill="#1e3a5f" opacity="0.6"/>

  <!-- Probe markers -->
  <!-- Paris - online/external -->
  <circle cx="572" cy="232" r="22" fill="#22c55e" opacity="0.1"/>
  <circle cx="572" cy="232" r="12" fill="#22c55e" opacity="0.2"/>
  <circle cx="572" cy="232" r="7" fill="#22c55e" filter="url(#markerGlow)"/>
  <!-- Paris tooltip -->
  <rect x="586" y="204" width="144" height="58" rx="6" fill="#0f172a" stroke="#334155" stroke-width="1" filter="url(#shadow)"/>
  <rect x="586" y="204" width="3" height="58" rx="1" fill="#22c55e"/>
  <text x="598" y="220" font-family="system-ui,sans-serif" font-size="12" font-weight="700" fill="#f1f5f9">Paris-FR</text>
  <rect x="664" y="208" width="58" height="16" rx="8" fill="#14532d"/>
  <text x="693" y="220" font-family="system-ui,sans-serif" font-size="9" font-weight="600" fill="#22c55e" text-anchor="middle">● Online</text>
  <text x="598" y="236" font-family="system-ui,sans-serif" font-size="10" fill="#64748b">External · v0.3.0</text>
  <text x="598" y="252" font-family="system-ui,sans-serif" font-size="10" fill="#475569">Last seen: 12s ago</text>

  <!-- Frankfurt - online/external -->
  <circle cx="598" cy="220" r="20" fill="#22c55e" opacity="0.08"/>
  <circle cx="598" cy="220" r="10" fill="#22c55e" opacity="0.18"/>
  <circle cx="598" cy="220" r="6" fill="#22c55e" filter="url(#markerGlow)"/>

  <!-- New York - online/internal -->
  <circle cx="342" cy="238" r="20" fill="#22c55e" opacity="0.1"/>
  <circle cx="342" cy="238" r="11" fill="#22c55e" opacity="0.2"/>
  <circle cx="342" cy="238" r="6" fill="#22c55e" filter="url(#markerGlow)"/>
  <!-- NY tooltip -->
  <rect x="356" y="210" width="154" height="58" rx="6" fill="#0f172a" stroke="#334155" stroke-width="1" filter="url(#shadow)"/>
  <rect x="356" y="210" width="3" height="58" rx="1" fill="#22c55e"/>
  <text x="368" y="226" font-family="system-ui,sans-serif" font-size="12" font-weight="700" fill="#f1f5f9">New York-US</text>
  <rect x="482" y="214" width="20" height="16" rx="8" fill="#14532d"/>
  <text x="492" y="226" font-family="system-ui,sans-serif" font-size="9" fill="#22c55e" text-anchor="middle">✓</text>
  <text x="368" y="242" font-family="system-ui,sans-serif" font-size="10" fill="#64748b">External · v0.3.0</text>
  <text x="368" y="258" font-family="system-ui,sans-serif" font-size="10" fill="#475569">Last seen: 28s ago</text>

  <!-- Singapore - online/internal -->
  <circle cx="808" cy="328" r="18" fill="#22c55e" opacity="0.08"/>
  <circle cx="808" cy="328" r="9" fill="#22c55e" opacity="0.18"/>
  <circle cx="808" cy="328" r="5" fill="#22c55e" filter="url(#markerGlow)"/>

  <!-- Brussels - offline/internal (red) -->
  <circle cx="556" cy="248" r="18" fill="#ef4444" opacity="0.12"/>
  <circle cx="556" cy="248" r="9" fill="#ef4444" opacity="0.22"/>
  <circle cx="556" cy="248" r="5" fill="#ef4444" filter="url(#markerGlowRed)"/>
  <!-- Offline tooltip -->
  <rect x="570" y="256" width="152" height="58" rx="6" fill="#0f172a" stroke="#ef4444" stroke-width="1" filter="url(#shadow)"/>
  <rect x="570" y="256" width="3" height="58" rx="1" fill="#ef4444"/>
  <text x="582" y="272" font-family="system-ui,sans-serif" font-size="12" font-weight="700" fill="#f1f5f9">Brussels-BE</text>
  <rect x="666" y="260" width="48" height="16" rx="8" fill="#7f1d1d"/>
  <text x="690" y="272" font-family="system-ui,sans-serif" font-size="9" font-weight="600" fill="#ef4444" text-anchor="middle">Offline</text>
  <text x="582" y="288" font-family="system-ui,sans-serif" font-size="10" fill="#64748b">Internal · v0.2.9</text>
  <text x="582" y="304" font-family="system-ui,sans-serif" font-size="10" fill="#ef4444">Last seen: 14min ago</text>

  <!-- Legend -->
  <rect x="264" y="602" width="340" height="36" rx="8" fill="#0f172a" stroke="#1e293b" stroke-width="1" opacity="0.95"/>
  <circle cx="290" cy="620" r="6" fill="#22c55e"/>
  <text x="304" y="625" font-family="system-ui,sans-serif" font-size="12" fill="#94a3b8">Online (3)</text>
  <circle cx="390" cy="620" r="6" fill="#ef4444"/>
  <text x="404" y="625" font-family="system-ui,sans-serif" font-size="12" fill="#94a3b8">Offline (1)</text>

  <!-- Type badges -->
  <rect x="264" y="643" width="112" height="18" rx="9" fill="#1e3a5f" stroke="#3b82f6" stroke-width="1" opacity="0.8"/>
  <text x="320" y="656" font-family="system-ui,sans-serif" font-size="10" fill="#3b82f6" text-anchor="middle">External probe</text>
  <rect x="384" y="643" width="106" height="18" rx="9" fill="#2d1b69" stroke="#a78bfa" stroke-width="1" opacity="0.8"/>
  <text x="437" y="656" font-family="system-ui,sans-serif" font-size="10" fill="#a78bfa" text-anchor="middle">Internal probe</text>
</svg>
