<svg xmlns="http://www.w3.org/2000/svg" width="1200" height="675" viewBox="0 0 1200 675">

  <!-- Background -->
  <rect width="1200" height="675" fill="#0c1117"/>

  <!-- Top gradient band -->
  <rect x="0" y="0" width="1200" height="3" fill="#4f9cf9"/>

  <!-- Header -->
  <rect x="0" y="0" width="1200" height="72" fill="#131920"/>
  <rect x="0" y="72" width="1200" height="1" fill="#1e2d3d"/>

  <!-- Logo + org name -->
  <circle cx="64" cy="36" r="9" fill="#4f9cf9"/>
  <circle cx="64" cy="36" r="4" fill="#0c1117"/>
  <text x="82" y="41" font-family="system-ui, sans-serif" font-size="15" font-weight="700" fill="#e4ecf4">Acme Corp Status</text>

  <!-- Nav links right -->
  <text x="1020" y="41" font-family="system-ui, sans-serif" font-size="13" fill="#8899aa">Subscribe</text>
  <text x="1090" y="41" font-family="system-ui, sans-serif" font-size="13" fill="#8899aa">History</text>
  <text x="1148" y="41" font-family="system-ui, sans-serif" font-size="13" fill="#4f9cf9">RSS</text>

  <!-- Global status banner -->
  <rect x="300" y="96" width="600" height="68" rx="10" fill="#34d399" fill-opacity="0.1" stroke="#34d399" stroke-opacity="0.25" stroke-width="1"/>
  <circle cx="376" cy="130" r="8" fill="#34d399"/>
  <!-- Pulse ring -->
  <circle cx="376" cy="130" r="13" fill="none" stroke="#34d399" stroke-opacity="0.3" stroke-width="2"/>
  <text x="400" y="126" font-family="system-ui, sans-serif" font-size="16" font-weight="700" fill="#34d399">All Systems Operational</text>
  <text x="400" y="148" font-family="system-ui, sans-serif" font-size="12" fill="#8899aa">Last checked 30 seconds ago</text>

  <!-- Services section title -->
  <text x="240" y="198" font-family="system-ui, sans-serif" font-size="13" font-weight="600" fill="#8899aa" letter-spacing="0.08em">SERVICES</text>
  <rect x="240" y="206" width="720" height="1" fill="#1e2d3d"/>

  <!-- Service 1: API — UP -->
  <rect x="240" y="214" width="720" height="72" rx="8" fill="#131920" stroke="#1e2d3d" stroke-width="1"/>
  <circle cx="266" cy="250" r="6" fill="#34d399"/>
  <text x="284" y="246" font-family="system-ui, sans-serif" font-size="14" font-weight="600" fill="#e4ecf4">API</text>
  <text x="284" y="264" font-family="system-ui, sans-serif" font-size="12" fill="#34d399">Operational</text>
  <text x="872" y="246" font-family="system-ui, sans-serif" font-size="12" font-weight="600" fill="#34d399" text-anchor="end">99.98%</text>
  <!-- 90 bars -->
  <g transform="translate(284, 272)">
    <rect x="0"   y="0" width="5" height="12" rx="1.5" fill="#34d399"/>
    <rect x="7"   y="0" width="5" height="12" rx="1.5" fill="#34d399"/>
    <rect x="14"  y="0" width="5" height="12" rx="1.5" fill="#34d399"/>
    <rect x="21"  y="0" width="5" height="12" rx="1.5" fill="#34d399"/>
    <rect x="28"  y="0" width="5" height="12" rx="1.5" fill="#34d399"/>
    <rect x="35"  y="0" width="5" height="12" rx="1.5" fill="#34d399"/>
    <rect x="42"  y="0" width="5" height="12" rx="1.5" fill="#34d399"/>
    <rect x="49"  y="0" width="5" height="12" rx="1.5" fill="#34d399"/>
    <rect x="56"  y="0" width="5" height="12" rx="1.5" fill="#34d399"/>
    <rect x="63"  y="0" width="5" height="12" rx="1.5" fill="#34d399"/>
    <rect x="70"  y="0" width="5" height="12" rx="1.5" fill="#34d399"/>
    <rect x="77"  y="0" width="5" height="12" rx="1.5" fill="#34d399"/>
    <rect x="84"  y="0" width="5" height="12" rx="1.5" fill="#34d399"/>
    <rect x="91"  y="0" width="5" height="12" rx="1.5" fill="#34d399"/>
    <rect x="98"  y="0" width="5" height="12" rx="1.5" fill="#fbbf24"/>
    <rect x="105" y="0" width="5" height="12" rx="1.5" fill="#34d399"/>
    <rect x="112" y="0" width="5" height="12" rx="1.5" fill="#34d399"/>
    <rect x="119" y="0" width="5" height="12" rx="1.5" fill="#34d399"/>
    <rect x="126" y="0" width="5" height="12" rx="1.5" fill="#34d399"/>
    <rect x="133" y="0" width="5" height="12" rx="1.5" fill="#34d399"/>
    <rect x="140" y="0" width="5" height="12" rx="1.5" fill="#34d399"/>
    <rect x="147" y="0" width="5" height="12" rx="1.5" fill="#34d399"/>
    <rect x="154" y="0" width="5" height="12" rx="1.5" fill="#34d399"/>
    <rect x="161" y="0" width="5" height="12" rx="1.5" fill="#34d399"/>
    <rect x="168" y="0" width="5" height="12" rx="1.5" fill="#34d399"/>
    <rect x="175" y="0" width="5" height="12" rx="1.5" fill="#34d399"/>
    <rect x="182" y="0" width="5" height="12" rx="1.5" fill="#34d399"/>
    <rect x="189" y="0" width="5" height="12" rx="1.5" fill="#34d399"/>
    <rect x="196" y="0" width="5" height="12" rx="1.5" fill="#34d399"/>
    <rect x="203" y="0" width="5" height="12" rx="1.5" fill="#34d399"/>
    <rect x="210" y="0" width="5" height="12" rx="1.5" fill="#34d399"/>
    <rect x="217" y="0" width="5" height="12" rx="1.5" fill="#34d399"/>
    <rect x="224" y="0" width="5" height="12" rx="1.5" fill="#34d399"/>
    <rect x="231" y="0" width="5" height="12" rx="1.5" fill="#34d399"/>
    <rect x="238" y="0" width="5" height="12" rx="1.5" fill="#34d399"/>
    <rect x="245" y="0" width="5" height="12" rx="1.5" fill="#34d399"/>
    <rect x="252" y="0" width="5" height="12" rx="1.5" fill="#34d399"/>
    <rect x="259" y="0" width="5" height="12" rx="1.5" fill="#34d399"/>
    <rect x="266" y="0" width="5" height="12" rx="1.5" fill="#34d399"/>
    <rect x="273" y="0" width="5" height="12" rx="1.5" fill="#34d399"/>
    <rect x="280" y="0" width="5" height="12" rx="1.5" fill="#34d399"/>
    <rect x="287" y="0" width="5" height="12" rx="1.5" fill="#34d399"/>
    <rect x="294" y="0" width="5" height="12" rx="1.5" fill="#34d399"/>
    <rect x="301" y="0" width="5" height="12" rx="1.5" fill="#34d399"/>
    <rect x="308" y="0" width="5" height="12" rx="1.5" fill="#34d399"/>
    <rect x="315" y="0" width="5" height="12" rx="1.5" fill="#34d399"/>
    <rect x="322" y="0" width="5" height="12" rx="1.5" fill="#34d399"/>
    <rect x="329" y="0" width="5" height="12" rx="1.5" fill="#34d399"/>
    <rect x="336" y="0" width="5" height="12" rx="1.5" fill="#34d399"/>
    <rect x="343" y="0" width="5" height="12" rx="1.5" fill="#34d399"/>
    <rect x="350" y="0" width="5" height="12" rx="1.5" fill="#34d399"/>
    <rect x="357" y="0" width="5" height="12" rx="1.5" fill="#34d399"/>
    <rect x="364" y="0" width="5" height="12" rx="1.5" fill="#34d399"/>
    <rect x="371" y="0" width="5" height="12" rx="1.5" fill="#34d399"/>
    <rect x="378" y="0" width="5" height="12" rx="1.5" fill="#34d399"/>
    <rect x="385" y="0" width="5" height="12" rx="1.5" fill="#34d399"/>
    <rect x="392" y="0" width="5" height="12" rx="1.5" fill="#34d399"/>
    <rect x="399" y="0" width="5" height="12" rx="1.5" fill="#34d399"/>
    <rect x="406" y="0" width="5" height="12" rx="1.5" fill="#34d399"/>
    <rect x="413" y="0" width="5" height="12" rx="1.5" fill="#34d399"/>
    <rect x="420" y="0" width="5" height="12" rx="1.5" fill="#34d399"/>
    <rect x="427" y="0" width="5" height="12" rx="1.5" fill="#34d399"/>
    <rect x="434" y="0" width="5" height="12" rx="1.5" fill="#34d399"/>
    <rect x="441" y="0" width="5" height="12" rx="1.5" fill="#34d399"/>
    <rect x="448" y="0" width="5" height="12" rx="1.5" fill="#34d399"/>
    <rect x="455" y="0" width="5" height="12" rx="1.5" fill="#34d399"/>
    <rect x="462" y="0" width="5" height="12" rx="1.5" fill="#34d399"/>
    <rect x="469" y="0" width="5" height="12" rx="1.5" fill="#34d399"/>
    <rect x="476" y="0" width="5" height="12" rx="1.5" fill="#34d399"/>
    <rect x="483" y="0" width="5" height="12" rx="1.5" fill="#34d399"/>
    <rect x="490" y="0" width="5" height="12" rx="1.5" fill="#34d399"/>
    <rect x="497" y="0" width="5" height="12" rx="1.5" fill="#34d399"/>
    <rect x="504" y="0" width="5" height="12" rx="1.5" fill="#34d399"/>
    <rect x="511" y="0" width="5" height="12" rx="1.5" fill="#34d399"/>
    <rect x="518" y="0" width="5" height="12" rx="1.5" fill="#34d399"/>
    <rect x="525" y="0" width="5" height="12" rx="1.5" fill="#34d399"/>
    <rect x="532" y="0" width="5" height="12" rx="1.5" fill="#34d399"/>
    <rect x="539" y="0" width="5" height="12" rx="1.5" fill="#34d399"/>
    <rect x="546" y="0" width="5" height="12" rx="1.5" fill="#34d399"/>
    <rect x="553" y="0" width="5" height="12" rx="1.5" fill="#34d399"/>
    <rect x="560" y="0" width="5" height="12" rx="1.5" fill="#34d399"/>
    <rect x="567" y="0" width="5" height="12" rx="1.5" fill="#34d399"/>
    <rect x="574" y="0" width="5" height="12" rx="1.5" fill="#34d399"/>
    <rect x="581" y="0" width="5" height="12" rx="1.5" fill="#34d399"/>
    <rect x="588" y="0" width="5" height="12" rx="1.5" fill="#34d399"/>
  </g>

  <!-- Service 2: Web — UP -->
  <rect x="240" y="294" width="720" height="58" rx="8" fill="#131920" stroke="#1e2d3d" stroke-width="1"/>
  <circle cx="266" cy="323" r="6" fill="#34d399"/>
  <text x="284" y="319" font-family="system-ui, sans-serif" font-size="14" font-weight="600" fill="#e4ecf4">Web App</text>
  <text x="284" y="337" font-family="system-ui, sans-serif" font-size="12" fill="#34d399">Operational</text>
  <text x="872" y="319" font-family="system-ui, sans-serif" font-size="12" font-weight="600" fill="#34d399" text-anchor="end">99.95%</text>
  <!-- mini bars -->
  <g transform="translate(284, 342)">
    <rect x="0"   y="0" width="5" height="6" rx="1" fill="#34d399"/>
    <rect x="7"   y="0" width="5" height="6" rx="1" fill="#34d399"/>
    <rect x="14"  y="0" width="5" height="6" rx="1" fill="#34d399"/>
    <rect x="21"  y="0" width="5" height="6" rx="1" fill="#34d399"/>
    <rect x="28"  y="0" width="5" height="6" rx="1" fill="#34d399"/>
    <rect x="35"  y="0" width="5" height="6" rx="1" fill="#34d399"/>
    <rect x="42"  y="0" width="5" height="6" rx="1" fill="#34d399"/>
    <rect x="49"  y="0" width="5" height="6" rx="1" fill="#34d399"/>
    <rect x="56"  y="0" width="5" height="6" rx="1" fill="#34d399"/>
    <rect x="63"  y="0" width="5" height="6" rx="1" fill="#34d399"/>
    <rect x="70"  y="0" width="5" height="6" rx="1" fill="#34d399"/>
    <rect x="77"  y="0" width="5" height="6" rx="1" fill="#34d399"/>
    <rect x="84"  y="0" width="5" height="6" rx="1" fill="#34d399"/>
    <rect x="91"  y="0" width="5" height="6" rx="1" fill="#34d399"/>
    <rect x="98"  y="0" width="5" height="6" rx="1" fill="#34d399"/>
    <rect x="105" y="0" width="5" height="6" rx="1" fill="#34d399"/>
    <rect x="112" y="0" width="5" height="6" rx="1" fill="#34d399"/>
    <rect x="119" y="0" width="5" height="6" rx="1" fill="#34d399"/>
    <rect x="126" y="0" width="5" height="6" rx="1" fill="#34d399"/>
    <rect x="133" y="0" width="5" height="6" rx="1" fill="#34d399"/>
    <rect x="140" y="0" width="5" height="6" rx="1" fill="#fbbf24"/>
    <rect x="147" y="0" width="5" height="6" rx="1" fill="#34d399"/>
    <rect x="154" y="0" width="5" height="6" rx="1" fill="#34d399"/>
    <rect x="161" y="0" width="5" height="6" rx="1" fill="#34d399"/>
    <rect x="168" y="0" width="5" height="6" rx="1" fill="#34d399"/>
    <rect x="175" y="0" width="5" height="6" rx="1" fill="#34d399"/>
    <rect x="182" y="0" width="5" height="6" rx="1" fill="#34d399"/>
    <rect x="189" y="0" width="5" height="6" rx="1" fill="#34d399"/>
    <rect x="196" y="0" width="5" height="6" rx="1" fill="#34d399"/>
    <rect x="203" y="0" width="5" height="6" rx="1" fill="#34d399"/>
    <rect x="210" y="0" width="5" height="6" rx="1" fill="#34d399"/>
    <rect x="217" y="0" width="5" height="6" rx="1" fill="#34d399"/>
    <rect x="224" y="0" width="5" height="6" rx="1" fill="#34d399"/>
    <rect x="231" y="0" width="5" height="6" rx="1" fill="#34d399"/>
    <rect x="238" y="0" width="5" height="6" rx="1" fill="#34d399"/>
    <rect x="245" y="0" width="5" height="6" rx="1" fill="#34d399"/>
    <rect x="252" y="0" width="5" height="6" rx="1" fill="#34d399"/>
    <rect x="259" y="0" width="5" height="6" rx="1" fill="#34d399"/>
    <rect x="266" y="0" width="5" height="6" rx="1" fill="#34d399"/>
    <rect x="273" y="0" width="5" height="6" rx="1" fill="#34d399"/>
    <rect x="280" y="0" width="5" height="6" rx="1" fill="#34d399"/>
    <rect x="287" y="0" width="5" height="6" rx="1" fill="#34d399"/>
    <rect x="294" y="0" width="5" height="6" rx="1" fill="#34d399"/>
    <rect x="301" y="0" width="5" height="6" rx="1" fill="#34d399"/>
    <rect x="308" y="0" width="5" height="6" rx="1" fill="#34d399"/>
    <rect x="315" y="0" width="5" height="6" rx="1" fill="#34d399"/>
    <rect x="322" y="0" width="5" height="6" rx="1" fill="#34d399"/>
    <rect x="329" y="0" width="5" height="6" rx="1" fill="#34d399"/>
    <rect x="336" y="0" width="5" height="6" rx="1" fill="#34d399"/>
    <rect x="343" y="0" width="5" height="6" rx="1" fill="#34d399"/>
    <rect x="350" y="0" width="5" height="6" rx="1" fill="#34d399"/>
    <rect x="357" y="0" width="5" height="6" rx="1" fill="#34d399"/>
    <rect x="364" y="0" width="5" height="6" rx="1" fill="#34d399"/>
    <rect x="371" y="0" width="5" height="6" rx="1" fill="#34d399"/>
    <rect x="378" y="0" width="5" height="6" rx="1" fill="#34d399"/>
    <rect x="385" y="0" width="5" height="6" rx="1" fill="#34d399"/>
    <rect x="392" y="0" width="5" height="6" rx="1" fill="#34d399"/>
    <rect x="399" y="0" width="5" height="6" rx="1" fill="#34d399"/>
    <rect x="406" y="0" width="5" height="6" rx="1" fill="#34d399"/>
    <rect x="413" y="0" width="5" height="6" rx="1" fill="#34d399"/>
    <rect x="420" y="0" width="5" height="6" rx="1" fill="#34d399"/>
    <rect x="427" y="0" width="5" height="6" rx="1" fill="#34d399"/>
    <rect x="434" y="0" width="5" height="6" rx="1" fill="#34d399"/>
    <rect x="441" y="0" width="5" height="6" rx="1" fill="#34d399"/>
    <rect x="448" y="0" width="5" height="6" rx="1" fill="#34d399"/>
    <rect x="455" y="0" width="5" height="6" rx="1" fill="#34d399"/>
    <rect x="462" y="0" width="5" height="6" rx="1" fill="#34d399"/>
    <rect x="469" y="0" width="5" height="6" rx="1" fill="#34d399"/>
    <rect x="476" y="0" width="5" height="6" rx="1" fill="#34d399"/>
    <rect x="483" y="0" width="5" height="6" rx="1" fill="#34d399"/>
    <rect x="490" y="0" width="5" height="6" rx="1" fill="#34d399"/>
    <rect x="497" y="0" width="5" height="6" rx="1" fill="#34d399"/>
    <rect x="504" y="0" width="5" height="6" rx="1" fill="#34d399"/>
    <rect x="511" y="0" width="5" height="6" rx="1" fill="#34d399"/>
    <rect x="518" y="0" width="5" height="6" rx="1" fill="#34d399"/>
    <rect x="525" y="0" width="5" height="6" rx="1" fill="#34d399"/>
    <rect x="532" y="0" width="5" height="6" rx="1" fill="#34d399"/>
    <rect x="539" y="0" width="5" height="6" rx="1" fill="#34d399"/>
    <rect x="546" y="0" width="5" height="6" rx="1" fill="#34d399"/>
    <rect x="553" y="0" width="5" height="6" rx="1" fill="#34d399"/>
    <rect x="560" y="0" width="5" height="6" rx="1" fill="#34d399"/>
    <rect x="567" y="0" width="5" height="6" rx="1" fill="#34d399"/>
    <rect x="574" y="0" width="5" height="6" rx="1" fill="#34d399"/>
    <rect x="581" y="0" width="5" height="6" rx="1" fill="#34d399"/>
    <rect x="588" y="0" width="5" height="6" rx="1" fill="#34d399"/>
  </g>

  <!-- Service 3: CDN — degraded -->
  <rect x="240" y="360" width="720" height="58" rx="8" fill="#131920" stroke="#fbbf24" stroke-opacity="0.3" stroke-width="1"/>
  <circle cx="266" cy="389" r="6" fill="#fbbf24"/>
  <text x="284" y="385" font-family="system-ui, sans-serif" font-size="14" font-weight="600" fill="#e4ecf4">CDN</text>
  <text x="284" y="403" font-family="system-ui, sans-serif" font-size="12" fill="#fbbf24">Degraded Performance</text>
  <text x="872" y="385" font-family="system-ui, sans-serif" font-size="12" font-weight="600" fill="#fbbf24" text-anchor="end">97.4%</text>
  <!-- mini bars -->
  <g transform="translate(284, 408)">
    <rect x="0"   y="0" width="5" height="6" rx="1" fill="#34d399"/>
    <rect x="7"   y="0" width="5" height="6" rx="1" fill="#34d399"/>
    <rect x="14"  y="0" width="5" height="6" rx="1" fill="#34d399"/>
    <rect x="21"  y="0" width="5" height="6" rx="1" fill="#34d399"/>
    <rect x="28"  y="0" width="5" height="6" rx="1" fill="#34d399"/>
    <rect x="35"  y="0" width="5" height="6" rx="1" fill="#34d399"/>
    <rect x="42"  y="0" width="5" height="6" rx="1" fill="#34d399"/>
    <rect x="49"  y="0" width="5" height="6" rx="1" fill="#34d399"/>
    <rect x="56"  y="0" width="5" height="6" rx="1" fill="#fbbf24"/>
    <rect x="63"  y="0" width="5" height="6" rx="1" fill="#fbbf24"/>
    <rect x="70"  y="0" width="5" height="6" rx="1" fill="#34d399"/>
    <rect x="77"  y="0" width="5" height="6" rx="1" fill="#34d399"/>
    <rect x="84"  y="0" width="5" height="6" rx="1" fill="#34d399"/>
    <rect x="91"  y="0" width="5" height="6" rx="1" fill="#34d399"/>
    <rect x="98"  y="0" width="5" height="6" rx="1" fill="#34d399"/>
    <rect x="105" y="0" width="5" height="6" rx="1" fill="#34d399"/>
    <rect x="112" y="0" width="5" height="6" rx="1" fill="#34d399"/>
    <rect x="119" y="0" width="5" height="6" rx="1" fill="#34d399"/>
    <rect x="126" y="0" width="5" height="6" rx="1" fill="#34d399"/>
    <rect x="133" y="0" width="5" height="6" rx="1" fill="#34d399"/>
    <rect x="140" y="0" width="5" height="6" rx="1" fill="#34d399"/>
    <rect x="147" y="0" width="5" height="6" rx="1" fill="#34d399"/>
    <rect x="154" y="0" width="5" height="6" rx="1" fill="#34d399"/>
    <rect x="161" y="0" width="5" height="6" rx="1" fill="#34d399"/>
    <rect x="168" y="0" width="5" height="6" rx="1" fill="#34d399"/>
    <rect x="175" y="0" width="5" height="6" rx="1" fill="#34d399"/>
    <rect x="182" y="0" width="5" height="6" rx="1" fill="#34d399"/>
    <rect x="189" y="0" width="5" height="6" rx="1" fill="#34d399"/>
    <rect x="196" y="0" width="5" height="6" rx="1" fill="#fbbf24"/>
    <rect x="203" y="0" width="5" height="6" rx="1" fill="#34d399"/>
    <rect x="210" y="0" width="5" height="6" rx="1" fill="#34d399"/>
    <rect x="217" y="0" width="5" height="6" rx="1" fill="#34d399"/>
    <rect x="224" y="0" width="5" height="6" rx="1" fill="#34d399"/>
    <rect x="231" y="0" width="5" height="6" rx="1" fill="#34d399"/>
    <rect x="238" y="0" width="5" height="6" rx="1" fill="#34d399"/>
    <rect x="245" y="0" width="5" height="6" rx="1" fill="#34d399"/>
    <rect x="252" y="0" width="5" height="6" rx="1" fill="#34d399"/>
    <rect x="259" y="0" width="5" height="6" rx="1" fill="#34d399"/>
    <rect x="266" y="0" width="5" height="6" rx="1" fill="#34d399"/>
    <rect x="273" y="0" width="5" height="6" rx="1" fill="#34d399"/>
    <rect x="280" y="0" width="5" height="6" rx="1" fill="#34d399"/>
    <rect x="287" y="0" width="5" height="6" rx="1" fill="#34d399"/>
    <rect x="294" y="0" width="5" height="6" rx="1" fill="#34d399"/>
    <rect x="301" y="0" width="5" height="6" rx="1" fill="#34d399"/>
    <rect x="308" y="0" width="5" height="6" rx="1" fill="#34d399"/>
    <rect x="315" y="0" width="5" height="6" rx="1" fill="#34d399"/>
    <rect x="322" y="0" width="5" height="6" rx="1" fill="#34d399"/>
    <rect x="329" y="0" width="5" height="6" rx="1" fill="#34d399"/>
    <rect x="336" y="0" width="5" height="6" rx="1" fill="#34d399"/>
    <rect x="343" y="0" width="5" height="6" rx="1" fill="#34d399"/>
    <rect x="350" y="0" width="5" height="6" rx="1" fill="#34d399"/>
    <rect x="357" y="0" width="5" height="6" rx="1" fill="#34d399"/>
    <rect x="364" y="0" width="5" height="6" rx="1" fill="#34d399"/>
    <rect x="371" y="0" width="5" height="6" rx="1" fill="#34d399"/>
    <rect x="378" y="0" width="5" height="6" rx="1" fill="#34d399"/>
    <rect x="385" y="0" width="5" height="6" rx="1" fill="#34d399"/>
    <rect x="392" y="0" width="5" height="6" rx="1" fill="#34d399"/>
    <rect x="399" y="0" width="5" height="6" rx="1" fill="#34d399"/>
    <rect x="406" y="0" width="5" height="6" rx="1" fill="#34d399"/>
    <rect x="413" y="0" width="5" height="6" rx="1" fill="#34d399"/>
    <rect x="420" y="0" width="5" height="6" rx="1" fill="#34d399"/>
    <rect x="427" y="0" width="5" height="6" rx="1" fill="#34d399"/>
    <rect x="434" y="0" width="5" height="6" rx="1" fill="#34d399"/>
    <rect x="441" y="0" width="5" height="6" rx="1" fill="#34d399"/>
    <rect x="448" y="0" width="5" height="6" rx="1" fill="#34d399"/>
    <rect x="455" y="0" width="5" height="6" rx="1" fill="#34d399"/>
    <rect x="462" y="0" width="5" height="6" rx="1" fill="#34d399"/>
    <rect x="469" y="0" width="5" height="6" rx="1" fill="#34d399"/>
    <rect x="476" y="0" width="5" height="6" rx="1" fill="#34d399"/>
    <rect x="483" y="0" width="5" height="6" rx="1" fill="#34d399"/>
    <rect x="490" y="0" width="5" height="6" rx="1" fill="#34d399"/>
    <rect x="497" y="0" width="5" height="6" rx="1" fill="#34d399"/>
    <rect x="504" y="0" width="5" height="6" rx="1" fill="#34d399"/>
    <rect x="511" y="0" width="5" height="6" rx="1" fill="#34d399"/>
    <rect x="518" y="0" width="5" height="6" rx="1" fill="#34d399"/>
    <rect x="525" y="0" width="5" height="6" rx="1" fill="#34d399"/>
    <rect x="532" y="0" width="5" height="6" rx="1" fill="#fbbf24"/>
    <rect x="539" y="0" width="5" height="6" rx="1" fill="#fbbf24"/>
    <rect x="546" y="0" width="5" height="6" rx="1" fill="#fbbf24"/>
    <rect x="553" y="0" width="5" height="6" rx="1" fill="#34d399"/>
    <rect x="560" y="0" width="5" height="6" rx="1" fill="#34d399"/>
    <rect x="567" y="0" width="5" height="6" rx="1" fill="#34d399"/>
    <rect x="574" y="0" width="5" height="6" rx="1" fill="#34d399"/>
    <rect x="581" y="0" width="5" height="6" rx="1" fill="#fbbf24"/>
    <rect x="588" y="0" width="5" height="6" rx="1" fill="#fbbf24"/>
  </g>

  <!-- Service 4: Database — UP -->
  <rect x="240" y="426" width="720" height="46" rx="8" fill="#131920" stroke="#1e2d3d" stroke-width="1"/>
  <circle cx="266" cy="449" r="6" fill="#34d399"/>
  <text x="284" y="445" font-family="system-ui, sans-serif" font-size="14" font-weight="600" fill="#e4ecf4">Database</text>
  <text x="284" y="463" font-family="system-ui, sans-serif" font-size="12" fill="#34d399">Operational</text>
  <text x="872" y="445" font-family="system-ui, sans-serif" font-size="12" font-weight="600" fill="#34d399" text-anchor="end">100%</text>

  <!-- Service 5: Auth — UP -->
  <rect x="240" y="480" width="720" height="46" rx="8" fill="#131920" stroke="#1e2d3d" stroke-width="1"/>
  <circle cx="266" cy="503" r="6" fill="#34d399"/>
  <text x="284" y="499" font-family="system-ui, sans-serif" font-size="14" font-weight="600" fill="#e4ecf4">Auth Service</text>
  <text x="284" y="517" font-family="system-ui, sans-serif" font-size="12" fill="#34d399">Operational</text>
  <text x="872" y="499" font-family="system-ui, sans-serif" font-size="12" font-weight="600" fill="#34d399" text-anchor="end">99.99%</text>

  <!-- Recent Incidents -->
  <text x="240" y="554" font-family="system-ui, sans-serif" font-size="13" font-weight="600" fill="#8899aa" letter-spacing="0.08em">RECENT INCIDENTS</text>
  <rect x="240" y="562" width="720" height="1" fill="#1e2d3d"/>

  <rect x="240" y="570" width="720" height="52" rx="8" fill="#131920" stroke="#1e2d3d" stroke-width="1"/>
  <rect x="240" y="570" width="4" height="52" rx="2" fill="#34d399"/>
  <text x="258" y="591" font-family="system-ui, sans-serif" font-size="13" font-weight="600" fill="#e4ecf4">CDN elevated latency — Europe West</text>
  <text x="258" y="609" font-family="system-ui, sans-serif" font-size="12" fill="#8899aa">Mar 18, 2026 · Resolved in 42 min</text>
  <rect x="862" y="580" width="68" height="18" rx="9" fill="#34d399" fill-opacity="0.13"/>
  <text x="896" y="592" font-family="system-ui, sans-serif" font-size="11" font-weight="600" fill="#34d399" text-anchor="middle">Resolved</text>

  <!-- Subscribe footer -->
  <rect x="0" y="634" width="1200" height="1" fill="#1e2d3d"/>
  <rect x="0" y="635" width="1200" height="40" fill="#131920"/>
  <text x="600" y="659" font-family="system-ui, sans-serif" font-size="12" fill="#8899aa" text-anchor="middle">Subscribe to updates</text>
  <rect x="680" y="643" width="196" height="26" rx="5" fill="#1a2230" stroke="#1e2d3d" stroke-width="1"/>
  <text x="778" y="660" font-family="system-ui, sans-serif" font-size="12" fill="#4d6070" text-anchor="middle">your@email.com</text>
  <rect x="882" y="643" width="80" height="26" rx="5" fill="#4f9cf9"/>
  <text x="922" y="660" font-family="system-ui, sans-serif" font-size="12" font-weight="600" fill="#0c1117" text-anchor="middle">Subscribe</text>

  <!-- Footer branding -->
  <text x="240" y="660" font-family="system-ui, sans-serif" font-size="11" fill="#4d6070">Powered by WhatIsUp</text>
</svg>
