<svg xmlns="http://www.w3.org/2000/svg" width="1200" height="675" viewBox="0 0 1200 675">

  <!-- Background -->
  <rect width="1200" height="675" fill="#0c1117"/>

  <!-- Sidebar -->
  <rect x="0" y="0" width="224" height="675" fill="#131920"/>
  <rect x="224" y="0" width="1" height="675" fill="#1e2d3d"/>

  <!-- Logo -->
  <circle cx="28" cy="32" r="7" fill="#4f9cf9"/>
  <circle cx="28" cy="32" r="3" fill="#0c1117"/>
  <text x="44" y="37" font-family="system-ui, sans-serif" font-size="14" font-weight="700" fill="#e4ecf4">WhatIsUp</text>

  <!-- Sidebar nav -->
  <rect x="8" y="56" width="208" height="34" rx="6" fill="#1a2230"/>
  <rect x="16" y="68" width="3" height="10" rx="1.5" fill="#4f9cf9"/>
  <text x="30" y="78" font-family="system-ui, sans-serif" font-size="13" font-weight="500" fill="#e4ecf4">Monitors</text>

  <text x="20" y="116" font-family="system-ui, sans-serif" font-size="13" fill="#8899aa">Probes</text>
  <text x="20" y="148" font-family="system-ui, sans-serif" font-size="13" fill="#8899aa">Groups</text>
  <text x="20" y="180" font-family="system-ui, sans-serif" font-size="13" fill="#8899aa">Alerts</text>
  <text x="20" y="212" font-family="system-ui, sans-serif" font-size="13" fill="#8899aa">Status Pages</text>
  <text x="20" y="244" font-family="system-ui, sans-serif" font-size="13" fill="#8899aa">Incidents</text>
  <text x="20" y="276" font-family="system-ui, sans-serif" font-size="13" fill="#8899aa">Maintenance</text>

  <!-- Sidebar bottom -->
  <rect x="0" y="608" width="224" height="1" fill="#1e2d3d"/>
  <text x="20" y="632" font-family="system-ui, sans-serif" font-size="13" fill="#8899aa">Settings</text>
  <text x="20" y="656" font-family="system-ui, sans-serif" font-size="11" fill="#4d6070">admin@example.com</text>

  <!-- Topbar -->
  <rect x="224" y="0" width="976" height="52" fill="#131920"/>
  <rect x="224" y="52" width="976" height="1" fill="#1e2d3d"/>

  <!-- Breadcrumb -->
  <text x="244" y="31" font-family="system-ui, sans-serif" font-size="13" fill="#4d6070">Monitors</text>
  <text x="310" y="31" font-family="system-ui, sans-serif" font-size="13" fill="#4d6070"> / </text>
  <text x="326" y="31" font-family="system-ui, sans-serif" font-size="13" fill="#4d6070">checkout-flow</text>
  <text x="425" y="31" font-family="system-ui, sans-serif" font-size="13" fill="#4d6070"> / </text>
  <text x="441" y="31" font-family="system-ui, sans-serif" font-size="13" fill="#e4ecf4">Scenario Builder</text>

  <!-- Lang toggle -->
  <rect x="1128" y="14" width="48" height="26" rx="5" fill="#1a2230" stroke="#1e2d3d" stroke-width="1"/>
  <text x="1152" y="31" font-family="system-ui, sans-serif" font-size="12" font-weight="600" fill="#8899aa" text-anchor="middle">FR</text>

  <!-- Page title -->
  <text x="244" y="88" font-family="system-ui, sans-serif" font-size="20" font-weight="700" fill="#e4ecf4">Scenario Builder</text>
  <text x="244" y="110" font-family="system-ui, sans-serif" font-size="13" fill="#4d6070">checkout-flow · Playwright · 5 min interval</text>

  <!-- ===== LEFT PANEL: Steps ===== -->
  <rect x="244" y="126" width="380" height="502" rx="8" fill="#131920" stroke="#1e2d3d" stroke-width="1"/>

  <!-- Panel header -->
  <rect x="244" y="126" width="380" height="44" rx="8" fill="#1a2230"/>
  <rect x="244" y="154" width="380" height="16" fill="#1a2230"/>
  <text x="262" y="152" font-family="system-ui, sans-serif" font-size="13" font-weight="600" fill="#e4ecf4">Steps</text>
  <rect x="574" y="134" width="34" height="26" rx="5" fill="#4f9cf9" fill-opacity="0.15" stroke="#4f9cf9" stroke-opacity="0.3" stroke-width="1"/>
  <text x="591" y="151" font-family="system-ui, sans-serif" font-size="18" font-weight="300" fill="#4f9cf9" text-anchor="middle">+</text>

  <!-- Step 1: navigate -->
  <rect x="244" y="170" width="380" height="52" fill="#1a2230"/>
  <rect x="244" y="221" width="380" height="1" fill="#1e2d3d"/>
  <!-- Step number -->
  <rect x="260" y="183" width="22" height="22" rx="4" fill="#4f9cf9" fill-opacity="0.15"/>
  <text x="271" y="198" font-family="JetBrains Mono, monospace" font-size="11" font-weight="700" fill="#4f9cf9" text-anchor="middle">1</text>
  <!-- Step type badge -->
  <rect x="290" y="184" width="58" height="18" rx="4" fill="#4f9cf9" fill-opacity="0.12"/>
  <text x="319" y="196" font-family="JetBrains Mono, monospace" font-size="10" font-weight="600" fill="#4f9cf9" text-anchor="middle">navigate</text>
  <!-- Step value -->
  <text x="356" y="196" font-family="JetBrains Mono, monospace" font-size="11" fill="#8899aa">https://shop.example.com</text>

  <!-- Step 2: wait_element -->
  <rect x="244" y="222" width="380" height="52" fill="#131920"/>
  <rect x="244" y="273" width="380" height="1" fill="#1e2d3d"/>
  <rect x="260" y="235" width="22" height="22" rx="4" fill="#1a2230"/>
  <text x="271" y="250" font-family="JetBrains Mono, monospace" font-size="11" fill="#4d6070" text-anchor="middle">2</text>
  <rect x="290" y="236" width="78" height="18" rx="4" fill="#1a2230"/>
  <text x="329" y="248" font-family="JetBrains Mono, monospace" font-size="10" fill="#8899aa" text-anchor="middle">wait_element</text>
  <text x="377" y="248" font-family="JetBrains Mono, monospace" font-size="11" fill="#8899aa">.hero</text>

  <!-- Step 3: click -->
  <rect x="244" y="274" width="380" height="52" fill="#131920"/>
  <rect x="244" y="325" width="380" height="1" fill="#1e2d3d"/>
  <rect x="260" y="287" width="22" height="22" rx="4" fill="#1a2230"/>
  <text x="271" y="302" font-family="JetBrains Mono, monospace" font-size="11" fill="#4d6070" text-anchor="middle">3</text>
  <rect x="290" y="288" width="36" height="18" rx="4" fill="#1a2230"/>
  <text x="308" y="300" font-family="JetBrains Mono, monospace" font-size="10" fill="#8899aa" text-anchor="middle">click</text>
  <text x="334" y="300" font-family="JetBrains Mono, monospace" font-size="11" fill="#8899aa">"Add to cart"</text>

  <!-- Step 4: fill (selected / highlighted) -->
  <rect x="244" y="326" width="380" height="52" fill="#4f9cf9" fill-opacity="0.07"/>
  <rect x="244" y="326" width="3" height="52" fill="#4f9cf9"/>
  <rect x="244" y="377" width="380" height="1" fill="#1e2d3d"/>
  <rect x="260" y="339" width="22" height="22" rx="4" fill="#4f9cf9" fill-opacity="0.2"/>
  <text x="271" y="354" font-family="JetBrains Mono, monospace" font-size="11" font-weight="700" fill="#4f9cf9" text-anchor="middle">4</text>
  <rect x="290" y="340" width="28" height="18" rx="4" fill="#4f9cf9" fill-opacity="0.2"/>
  <text x="304" y="352" font-family="JetBrains Mono, monospace" font-size="10" font-weight="600" fill="#4f9cf9" text-anchor="middle">fill</text>
  <text x="326" y="352" font-family="JetBrains Mono, monospace" font-size="11" fill="#e4ecf4">email field</text>
  <!-- selected indicator -->
  <rect x="596" y="339" width="18" height="18" rx="4" fill="#4f9cf9" fill-opacity="0.2"/>
  <!-- pencil icon simplified -->
  <line x1="600" y1="354" x2="610" y2="344" stroke="#4f9cf9" stroke-width="1.5" stroke-linecap="round"/>
  <line x1="610" y1="344" x2="613" y2="348" stroke="#4f9cf9" stroke-width="1.5" stroke-linecap="round"/>
  <line x1="600" y1="354" x2="613" y2="348" stroke="#4f9cf9" stroke-width="1.5" stroke-linecap="round"/>

  <!-- Step 5: fill password -->
  <rect x="244" y="378" width="380" height="52" fill="#131920"/>
  <rect x="244" y="429" width="380" height="1" fill="#1e2d3d"/>
  <rect x="260" y="391" width="22" height="22" rx="4" fill="#1a2230"/>
  <text x="271" y="406" font-family="JetBrains Mono, monospace" font-size="11" fill="#4d6070" text-anchor="middle">5</text>
  <rect x="290" y="392" width="28" height="18" rx="4" fill="#1a2230"/>
  <text x="304" y="404" font-family="JetBrains Mono, monospace" font-size="10" fill="#8899aa" text-anchor="middle">fill</text>
  <text x="326" y="404" font-family="JetBrains Mono, monospace" font-size="11" fill="#8899aa">password</text>
  <text x="404" y="404" font-family="JetBrains Mono, monospace" font-size="11" fill="#4d6070">••••••</text>

  <!-- Step 6: assert_text -->
  <rect x="244" y="430" width="380" height="52" fill="#131920"/>
  <rect x="244" y="481" width="380" height="1" fill="#1e2d3d"/>
  <rect x="260" y="443" width="22" height="22" rx="4" fill="#1a2230"/>
  <text x="271" y="458" font-family="JetBrains Mono, monospace" font-size="11" fill="#4d6070" text-anchor="middle">6</text>
  <rect x="290" y="444" width="68" height="18" rx="4" fill="#1a2230"/>
  <text x="324" y="456" font-family="JetBrains Mono, monospace" font-size="10" fill="#8899aa" text-anchor="middle">assert_text</text>
  <text x="366" y="456" font-family="JetBrains Mono, monospace" font-size="11" fill="#8899aa">"Order confirmed"</text>

  <!-- Step 7: screenshot -->
  <rect x="244" y="482" width="380" height="52" fill="#131920"/>
  <rect x="244" y="534" width="380" height="1" fill="#1e2d3d"/>
  <rect x="260" y="495" width="22" height="22" rx="4" fill="#1a2230"/>
  <text x="271" y="510" font-family="JetBrains Mono, monospace" font-size="11" fill="#4d6070" text-anchor="middle">7</text>
  <rect x="290" y="496" width="72" height="18" rx="4" fill="#1a2230"/>
  <text x="326" y="508" font-family="JetBrains Mono, monospace" font-size="10" fill="#8899aa" text-anchor="middle">screenshot</text>

  <!-- Bottom buttons -->
  <rect x="244" y="582" width="380" height="46" rx="0" fill="#1a2230"/>
  <rect x="244" y="620" width="380" height="8" rx="0" fill="#131920"/>
  <rect x="244" y="620" width="380" height="8" rx="8" fill="#131920"/>

  <rect x="262" y="592" width="80" height="30" rx="6" fill="#4f9cf9"/>
  <text x="302" y="611" font-family="system-ui, sans-serif" font-size="13" font-weight="600" fill="#0c1117" text-anchor="middle">Run</text>

  <rect x="352" y="592" width="80" height="30" rx="6" fill="#1a2230" stroke="#1e2d3d" stroke-width="1"/>
  <text x="392" y="611" font-family="system-ui, sans-serif" font-size="13" font-weight="500" fill="#e4ecf4" text-anchor="middle">Save</text>

  <rect x="524" y="592" width="84" height="30" rx="6" fill="#1a2230" stroke="#1e2d3d" stroke-width="1"/>
  <text x="566" y="611" font-family="system-ui, sans-serif" font-size="13" font-weight="500" fill="#8899aa" text-anchor="middle">Discard</text>

  <!-- ===== RIGHT PANEL: Preview ===== -->
  <rect x="640" y="126" width="538" height="502" rx="8" fill="#131920" stroke="#1e2d3d" stroke-width="1"/>

  <!-- Panel header -->
  <rect x="640" y="126" width="538" height="44" rx="8" fill="#1a2230"/>
  <rect x="640" y="154" width="538" height="16" fill="#1a2230"/>
  <text x="658" y="152" font-family="system-ui, sans-serif" font-size="13" font-weight="600" fill="#e4ecf4">Last Run Result</text>

  <!-- Status bar -->
  <rect x="640" y="170" width="538" height="40" fill="#1a2230"/>
  <rect x="640" y="209" width="538" height="1" fill="#1e2d3d"/>

  <circle cx="666" cy="190" r="7" fill="#34d399"/>
  <text x="682" y="194" font-family="system-ui, sans-serif" font-size="13" font-weight="600" fill="#34d399">UP</text>
  <text x="722" y="194" font-family="system-ui, sans-serif" font-size="12" fill="#8899aa">Completed 3/7 steps</text>
  <text x="1152" y="194" font-family="system-ui, sans-serif" font-size="12" fill="#4d6070" text-anchor="end">2s ago</text>

  <!-- Step results list -->
  <!-- Result row 1 -->
  <rect x="640" y="210" width="538" height="42" fill="#131920"/>
  <rect x="640" y="251" width="538" height="1" fill="#1e2d3d"/>
  <circle cx="666" cy="231" r="5" fill="#34d399"/>
  <rect x="680" y="222" width="48" height="16" rx="3" fill="#4f9cf9" fill-opacity="0.12"/>
  <text x="704" y="233" font-family="JetBrains Mono, monospace" font-size="10" font-weight="600" fill="#4f9cf9" text-anchor="middle">navigate</text>
  <text x="736" y="233" font-family="JetBrains Mono, monospace" font-size="11" fill="#8899aa">https://shop.example.com</text>
  <text x="1158" y="233" font-family="JetBrains Mono, monospace" font-size="11" fill="#34d399" text-anchor="end">412ms</text>

  <!-- Result row 2 -->
  <rect x="640" y="252" width="538" height="42" fill="#131920"/>
  <rect x="640" y="293" width="538" height="1" fill="#1e2d3d"/>
  <circle cx="666" cy="273" r="5" fill="#34d399"/>
  <rect x="680" y="264" width="72" height="16" rx="3" fill="#1a2230"/>
  <text x="716" y="275" font-family="JetBrains Mono, monospace" font-size="10" fill="#8899aa" text-anchor="middle">wait_element</text>
  <text x="760" y="275" font-family="JetBrains Mono, monospace" font-size="11" fill="#8899aa">.hero</text>
  <text x="1158" y="275" font-family="JetBrains Mono, monospace" font-size="11" fill="#34d399" text-anchor="end">88ms</text>

  <!-- Result row 3 -->
  <rect x="640" y="294" width="538" height="42" fill="#131920"/>
  <rect x="640" y="335" width="538" height="1" fill="#1e2d3d"/>
  <circle cx="666" cy="315" r="5" fill="#34d399"/>
  <rect x="680" y="306" width="32" height="16" rx="3" fill="#1a2230"/>
  <text x="696" y="317" font-family="JetBrains Mono, monospace" font-size="10" fill="#8899aa" text-anchor="middle">click</text>
  <text x="720" y="317" font-family="JetBrains Mono, monospace" font-size="11" fill="#8899aa">"Add to cart"</text>
  <text x="1158" y="317" font-family="JetBrains Mono, monospace" font-size="11" fill="#34d399" text-anchor="end">156ms</text>

  <!-- Result row 4 (in progress / current selected) -->
  <rect x="640" y="336" width="538" height="42" fill="#4f9cf9" fill-opacity="0.05"/>
  <rect x="640" y="377" width="538" height="1" fill="#1e2d3d"/>
  <!-- spinner circle -->
  <circle cx="666" cy="357" r="5" fill="none" stroke="#4f9cf9" stroke-width="1.5" stroke-dasharray="8,5"/>
  <rect x="680" y="348" width="28" height="16" rx="3" fill="#4f9cf9" fill-opacity="0.15"/>
  <text x="694" y="359" font-family="JetBrains Mono, monospace" font-size="10" fill="#4f9cf9" text-anchor="middle">fill</text>
  <text x="716" y="359" font-family="JetBrains Mono, monospace" font-size="11" fill="#e4ecf4">email field</text>
  <text x="1158" y="359" font-family="JetBrains Mono, monospace" font-size="11" fill="#4d6070" text-anchor="end">running…</text>

  <!-- Rows 5-7 greyed out (pending) -->
  <rect x="640" y="378" width="538" height="42" fill="#131920"/>
  <rect x="640" y="419" width="538" height="1" fill="#1e2d3d"/>
  <circle cx="666" cy="399" r="5" fill="none" stroke="#1e2d3d" stroke-width="1.5"/>
  <text x="680" y="403" font-family="JetBrains Mono, monospace" font-size="10" fill="#4d6070">fill · password</text>

  <rect x="640" y="420" width="538" height="42" fill="#131920"/>
  <rect x="640" y="461" width="538" height="1" fill="#1e2d3d"/>
  <circle cx="666" cy="441" r="5" fill="none" stroke="#1e2d3d" stroke-width="1.5"/>
  <text x="680" y="445" font-family="JetBrains Mono, monospace" font-size="10" fill="#4d6070">assert_text · "Order confirmed"</text>

  <rect x="640" y="462" width="538" height="42" fill="#131920"/>
  <rect x="640" y="503" width="538" height="1" fill="#1e2d3d"/>
  <circle cx="666" cy="483" r="5" fill="none" stroke="#1e2d3d" stroke-width="1.5"/>
  <text x="680" y="487" font-family="JetBrains Mono, monospace" font-size="10" fill="#4d6070">screenshot</text>

  <!-- Screenshot preview area -->
  <rect x="658" y="514" width="502" height="100" rx="6" fill="#1a2230" stroke="#1e2d3d" stroke-width="1"/>
  <text x="909" y="542" font-family="system-ui, sans-serif" font-size="12" fill="#4d6070" text-anchor="middle">Last screenshot</text>

  <!-- Mocked screenshot content (stylized grey blocks) -->
  <rect x="674" y="550" width="220" height="12" rx="3" fill="#0c1117"/>
  <rect x="674" y="568" width="160" height="8" rx="2" fill="#0c1117"/>
  <rect x="674" y="582" width="100" height="8" rx="2" fill="#0c1117"/>
  <rect x="904" y="550" width="240" height="54" rx="4" fill="#0c1117"/>
  <!-- tiny ui elements in mock -->
  <rect x="912" y="558" width="80" height="8" rx="2" fill="#1a2230"/>
  <rect x="912" y="572" width="120" height="8" rx="2" fill="#1a2230"/>
  <rect x="912" y="586" width="60" height="8" rx="2" fill="#4f9cf9" fill-opacity="0.3"/>

  <!-- Selected step detail panel at bottom -->
  <rect x="640" y="622" width="538" height="6" fill="#1a2230"/>
  <rect x="640" y="620" width="538" height="8" rx="4" fill="#1a2230"/>

  <!-- Selected step editor hint -->
  <text x="658" y="640" font-family="system-ui, sans-serif" font-size="11" fill="#4d6070">Step 4 selected — editing fill action</text>
  <text x="1158" y="640" font-family="system-ui, sans-serif" font-size="11" fill="#4f9cf9" text-anchor="end">+ Add step after</text>
</svg>
