<svg xmlns="http://www.w3.org/2000/svg" viewBox="0 0 1200 675" width="1200" height="675" style="font-family:'Plus Jakarta Sans',system-ui,sans-serif;">
  <rect width="1200" height="675" fill="#0c1117"/>

  <!-- Left panel: tagged monitor list -->
  <rect x="24" y="24" width="720" height="627" rx="12" fill="#131920" stroke="#1e2d3d"/>
  <text x="48" y="58" fill="#e4ecf4" font-size="15" font-weight="700">Monitors</text>
  <text x="48" y="80" fill="#6c7a89" font-size="11">Filter by tag, team, or check type.</text>

  <!-- Filter chips -->
  <rect x="48" y="100" width="78" height="26" rx="13" fill="#4f9cf9" fill-opacity="0.12" stroke="#4f9cf9" stroke-opacity="0.6"/>
  <text x="87" y="118" text-anchor="middle" fill="#c7dbf8" font-size="10">env:prod</text>
  <rect x="134" y="100" width="90" height="26" rx="13" fill="#10b981" fill-opacity="0.12" stroke="#10b981" stroke-opacity="0.6"/>
  <text x="179" y="118" text-anchor="middle" fill="#6ee7b7" font-size="10">team:backend</text>
  <rect x="232" y="100" width="106" height="26" rx="13" fill="#131920" stroke="#2a3a4a"/>
  <text x="285" y="118" text-anchor="middle" fill="#6c7a89" font-size="10">+ Add filter</text>

  <!-- Monitor row 1 -->
  <rect x="48" y="146" width="648" height="60" rx="10" fill="#0c1117" stroke="#1e2d3d"/>
  <circle cx="72" cy="176" r="6" fill="#10b981"/>
  <text x="92" y="172" fill="#e4ecf4" font-size="13" font-weight="600">api.prod.example.com</text>
  <text x="92" y="190" fill="#6c7a89" font-size="10">https://api.prod.example.com/health · 99.97 % / 24h</text>
  <rect x="380" y="166" width="68" height="18" rx="9" fill="#4f9cf9" fill-opacity="0.15" stroke="#4f9cf9" stroke-opacity="0.5"/>
  <text x="414" y="179" text-anchor="middle" fill="#c7dbf8" font-size="9">env:prod</text>
  <rect x="454" y="166" width="84" height="18" rx="9" fill="#10b981" fill-opacity="0.15" stroke="#10b981" stroke-opacity="0.5"/>
  <text x="496" y="179" text-anchor="middle" fill="#6ee7b7" font-size="9">team:backend</text>
  <rect x="544" y="166" width="80" height="18" rx="9" fill="#dc2626" fill-opacity="0.15" stroke="#dc2626" stroke-opacity="0.5"/>
  <text x="584" y="179" text-anchor="middle" fill="#fca5a5" font-size="9">tier:critical</text>

  <!-- Monitor row 2 -->
  <rect x="48" y="218" width="648" height="60" rx="10" fill="#0c1117" stroke="#1e2d3d"/>
  <circle cx="72" cy="248" r="6" fill="#10b981"/>
  <text x="92" y="244" fill="#e4ecf4" font-size="13" font-weight="600">checkout-service</text>
  <text x="92" y="262" fill="#6c7a89" font-size="10">tcp://checkout.internal:5432 · 99.95 % / 24h</text>
  <rect x="380" y="238" width="68" height="18" rx="9" fill="#4f9cf9" fill-opacity="0.15" stroke="#4f9cf9" stroke-opacity="0.5"/>
  <text x="414" y="251" text-anchor="middle" fill="#c7dbf8" font-size="9">env:prod</text>
  <rect x="454" y="238" width="84" height="18" rx="9" fill="#10b981" fill-opacity="0.15" stroke="#10b981" stroke-opacity="0.5"/>
  <text x="496" y="251" text-anchor="middle" fill="#6ee7b7" font-size="9">team:backend</text>

  <!-- Monitor row 3 -->
  <rect x="48" y="290" width="648" height="60" rx="10" fill="#0c1117" stroke="#1e2d3d"/>
  <circle cx="72" cy="320" r="6" fill="#f59e0b"/>
  <text x="92" y="316" fill="#e4ecf4" font-size="13" font-weight="600">payment-gateway</text>
  <text x="92" y="334" fill="#6c7a89" font-size="10">https://pay.example.com · 99.89 % / 24h</text>
  <rect x="380" y="310" width="68" height="18" rx="9" fill="#4f9cf9" fill-opacity="0.15" stroke="#4f9cf9" stroke-opacity="0.5"/>
  <text x="414" y="323" text-anchor="middle" fill="#c7dbf8" font-size="9">env:prod</text>
  <rect x="454" y="310" width="110" height="18" rx="9" fill="#7c3aed" fill-opacity="0.15" stroke="#7c3aed" stroke-opacity="0.5"/>
  <text x="509" y="323" text-anchor="middle" fill="#c4b5fd" font-size="9">owner:payments</text>
  <rect x="570" y="310" width="80" height="18" rx="9" fill="#dc2626" fill-opacity="0.15" stroke="#dc2626" stroke-opacity="0.5"/>
  <text x="610" y="323" text-anchor="middle" fill="#fca5a5" font-size="9">tier:critical</text>

  <!-- Monitor row 4 -->
  <rect x="48" y="362" width="648" height="60" rx="10" fill="#0c1117" stroke="#1e2d3d"/>
  <circle cx="72" cy="392" r="6" fill="#10b981"/>
  <text x="92" y="388" fill="#e4ecf4" font-size="13" font-weight="600">admin.staging.example.com</text>
  <text x="92" y="406" fill="#6c7a89" font-size="10">https://admin.staging.example.com · 99.12 % / 24h</text>
  <rect x="380" y="382" width="82" height="18" rx="9" fill="#f59e0b" fill-opacity="0.15" stroke="#f59e0b" stroke-opacity="0.5"/>
  <text x="421" y="395" text-anchor="middle" fill="#fcd34d" font-size="9">env:staging</text>
  <rect x="468" y="382" width="88" height="18" rx="9" fill="#06b6d4" fill-opacity="0.15" stroke="#06b6d4" stroke-opacity="0.5"/>
  <text x="512" y="395" text-anchor="middle" fill="#67e8f9" font-size="9">team:frontend</text>

  <!-- Right panel: RBAC -->
  <rect x="768" y="24" width="408" height="627" rx="12" fill="#131920" stroke="#1e2d3d"/>
  <text x="792" y="58" fill="#e4ecf4" font-size="14" font-weight="700">Tag permissions</text>
  <text x="792" y="80" fill="#6c7a89" font-size="11">Grant access to tagged monitors by role.</text>

  <!-- Row 1 -->
  <rect x="792" y="104" width="360" height="56" rx="10" fill="#0c1117" stroke="#1e2d3d"/>
  <circle cx="812" cy="132" r="10" fill="#4f9cf9" fill-opacity="0.2" stroke="#4f9cf9"/>
  <text x="812" y="136" text-anchor="middle" fill="#c7dbf8" font-size="10" font-weight="700">A</text>
  <text x="832" y="128" fill="#e4ecf4" font-size="12">alice@example.com</text>
  <text x="832" y="144" fill="#6c7a89" font-size="10">team:backend → admin</text>
  <rect x="1082" y="118" width="50" height="20" rx="10" fill="#dc2626" fill-opacity="0.15" stroke="#dc2626" stroke-opacity="0.5"/>
  <text x="1107" y="132" text-anchor="middle" fill="#fca5a5" font-size="9">admin</text>

  <!-- Row 2 -->
  <rect x="792" y="172" width="360" height="56" rx="10" fill="#0c1117" stroke="#1e2d3d"/>
  <circle cx="812" cy="200" r="10" fill="#10b981" fill-opacity="0.2" stroke="#10b981"/>
  <text x="812" y="204" text-anchor="middle" fill="#6ee7b7" font-size="10" font-weight="700">B</text>
  <text x="832" y="196" fill="#e4ecf4" font-size="12">bob@example.com</text>
  <text x="832" y="212" fill="#6c7a89" font-size="10">tier:critical → view</text>
  <rect x="1086" y="186" width="46" height="20" rx="10" fill="#4f9cf9" fill-opacity="0.15" stroke="#4f9cf9" stroke-opacity="0.5"/>
  <text x="1109" y="200" text-anchor="middle" fill="#c7dbf8" font-size="9">view</text>

  <!-- Row 3 -->
  <rect x="792" y="240" width="360" height="56" rx="10" fill="#0c1117" stroke="#1e2d3d"/>
  <circle cx="812" cy="268" r="10" fill="#f59e0b" fill-opacity="0.2" stroke="#f59e0b"/>
  <text x="812" y="272" text-anchor="middle" fill="#fcd34d" font-size="10" font-weight="700">C</text>
  <text x="832" y="264" fill="#e4ecf4" font-size="12">carol@example.com</text>
  <text x="832" y="280" fill="#6c7a89" font-size="10">owner:payments → edit</text>
  <rect x="1090" y="254" width="42" height="20" rx="10" fill="#10b981" fill-opacity="0.15" stroke="#10b981" stroke-opacity="0.5"/>
  <text x="1111" y="268" text-anchor="middle" fill="#6ee7b7" font-size="9">edit</text>

  <!-- Caption -->
  <text x="600" y="645" text-anchor="middle" fill="#4a5a6c" font-size="11">v1.1 · tags, filtering &amp; tag-scoped RBAC for alert rules</text>
</svg>
